%TF.GenerationSoftware,KiCad,Pcbnew,(5.1.6)-1*%
%TF.CreationDate,2020-08-29T13:30:18-04:00*%
%TF.ProjectId,555-timer-rev1-0,3535352d-7469-46d6-9572-2d726576312d,rev?*%
%TF.SameCoordinates,Original*%
%TF.FileFunction,Paste,Top*%
%TF.FilePolarity,Positive*%
%FSLAX46Y46*%
G04 Gerber Fmt 4.6, Leading zero omitted, Abs format (unit mm)*
G04 Created by KiCad (PCBNEW (5.1.6)-1) date 2020-08-29 13:30:18*
%MOMM*%
%LPD*%
G01*
G04 APERTURE LIST*
%ADD10R,2.000000X1.000000*%
G04 APERTURE END LIST*
%TO.C,U1*%
G36*
G01*
X150250000Y-78995000D02*
X150250000Y-78695000D01*
G75*
G02*
X150400000Y-78545000I150000J0D01*
G01*
X152050000Y-78545000D01*
G75*
G02*
X152200000Y-78695000I0J-150000D01*
G01*
X152200000Y-78995000D01*
G75*
G02*
X152050000Y-79145000I-150000J0D01*
G01*
X150400000Y-79145000D01*
G75*
G02*
X150250000Y-78995000I0J150000D01*
G01*
G37*
G36*
G01*
X150250000Y-80265000D02*
X150250000Y-79965000D01*
G75*
G02*
X150400000Y-79815000I150000J0D01*
G01*
X152050000Y-79815000D01*
G75*
G02*
X152200000Y-79965000I0J-150000D01*
G01*
X152200000Y-80265000D01*
G75*
G02*
X152050000Y-80415000I-150000J0D01*
G01*
X150400000Y-80415000D01*
G75*
G02*
X150250000Y-80265000I0J150000D01*
G01*
G37*
G36*
G01*
X150250000Y-81535000D02*
X150250000Y-81235000D01*
G75*
G02*
X150400000Y-81085000I150000J0D01*
G01*
X152050000Y-81085000D01*
G75*
G02*
X152200000Y-81235000I0J-150000D01*
G01*
X152200000Y-81535000D01*
G75*
G02*
X152050000Y-81685000I-150000J0D01*
G01*
X150400000Y-81685000D01*
G75*
G02*
X150250000Y-81535000I0J150000D01*
G01*
G37*
G36*
G01*
X150250000Y-82805000D02*
X150250000Y-82505000D01*
G75*
G02*
X150400000Y-82355000I150000J0D01*
G01*
X152050000Y-82355000D01*
G75*
G02*
X152200000Y-82505000I0J-150000D01*
G01*
X152200000Y-82805000D01*
G75*
G02*
X152050000Y-82955000I-150000J0D01*
G01*
X150400000Y-82955000D01*
G75*
G02*
X150250000Y-82805000I0J150000D01*
G01*
G37*
G36*
G01*
X145300000Y-82805000D02*
X145300000Y-82505000D01*
G75*
G02*
X145450000Y-82355000I150000J0D01*
G01*
X147100000Y-82355000D01*
G75*
G02*
X147250000Y-82505000I0J-150000D01*
G01*
X147250000Y-82805000D01*
G75*
G02*
X147100000Y-82955000I-150000J0D01*
G01*
X145450000Y-82955000D01*
G75*
G02*
X145300000Y-82805000I0J150000D01*
G01*
G37*
G36*
G01*
X145300000Y-81535000D02*
X145300000Y-81235000D01*
G75*
G02*
X145450000Y-81085000I150000J0D01*
G01*
X147100000Y-81085000D01*
G75*
G02*
X147250000Y-81235000I0J-150000D01*
G01*
X147250000Y-81535000D01*
G75*
G02*
X147100000Y-81685000I-150000J0D01*
G01*
X145450000Y-81685000D01*
G75*
G02*
X145300000Y-81535000I0J150000D01*
G01*
G37*
G36*
G01*
X145300000Y-80265000D02*
X145300000Y-79965000D01*
G75*
G02*
X145450000Y-79815000I150000J0D01*
G01*
X147100000Y-79815000D01*
G75*
G02*
X147250000Y-79965000I0J-150000D01*
G01*
X147250000Y-80265000D01*
G75*
G02*
X147100000Y-80415000I-150000J0D01*
G01*
X145450000Y-80415000D01*
G75*
G02*
X145300000Y-80265000I0J150000D01*
G01*
G37*
G36*
G01*
X145300000Y-78995000D02*
X145300000Y-78695000D01*
G75*
G02*
X145450000Y-78545000I150000J0D01*
G01*
X147100000Y-78545000D01*
G75*
G02*
X147250000Y-78695000I0J-150000D01*
G01*
X147250000Y-78995000D01*
G75*
G02*
X147100000Y-79145000I-150000J0D01*
G01*
X145450000Y-79145000D01*
G75*
G02*
X145300000Y-78995000I0J150000D01*
G01*
G37*
%TD*%
D10*
%TO.C,SW2*%
X145900000Y-92400000D03*
X145900000Y-95600000D03*
X151600000Y-95600000D03*
X151600000Y-92400000D03*
%TD*%
%TO.C,SW1*%
X145900000Y-85400000D03*
X145900000Y-88600000D03*
X151600000Y-88600000D03*
X151600000Y-85400000D03*
%TD*%
%TO.C,R6*%
G36*
G01*
X152275000Y-105125000D02*
X152275000Y-103875000D01*
G75*
G02*
X152525000Y-103625000I250000J0D01*
G01*
X153450000Y-103625000D01*
G75*
G02*
X153700000Y-103875000I0J-250000D01*
G01*
X153700000Y-105125000D01*
G75*
G02*
X153450000Y-105375000I-250000J0D01*
G01*
X152525000Y-105375000D01*
G75*
G02*
X152275000Y-105125000I0J250000D01*
G01*
G37*
G36*
G01*
X149300000Y-105125000D02*
X149300000Y-103875000D01*
G75*
G02*
X149550000Y-103625000I250000J0D01*
G01*
X150475000Y-103625000D01*
G75*
G02*
X150725000Y-103875000I0J-250000D01*
G01*
X150725000Y-105125000D01*
G75*
G02*
X150475000Y-105375000I-250000J0D01*
G01*
X149550000Y-105375000D01*
G75*
G02*
X149300000Y-105125000I0J250000D01*
G01*
G37*
%TD*%
%TO.C,R5*%
G36*
G01*
X152287500Y-101375000D02*
X152287500Y-100125000D01*
G75*
G02*
X152537500Y-99875000I250000J0D01*
G01*
X153462500Y-99875000D01*
G75*
G02*
X153712500Y-100125000I0J-250000D01*
G01*
X153712500Y-101375000D01*
G75*
G02*
X153462500Y-101625000I-250000J0D01*
G01*
X152537500Y-101625000D01*
G75*
G02*
X152287500Y-101375000I0J250000D01*
G01*
G37*
G36*
G01*
X149312500Y-101375000D02*
X149312500Y-100125000D01*
G75*
G02*
X149562500Y-99875000I250000J0D01*
G01*
X150487500Y-99875000D01*
G75*
G02*
X150737500Y-100125000I0J-250000D01*
G01*
X150737500Y-101375000D01*
G75*
G02*
X150487500Y-101625000I-250000J0D01*
G01*
X149562500Y-101625000D01*
G75*
G02*
X149312500Y-101375000I0J250000D01*
G01*
G37*
%TD*%
%TO.C,D2*%
G36*
G01*
X146625000Y-105075000D02*
X146625000Y-103925000D01*
G75*
G02*
X146875000Y-103675000I250000J0D01*
G01*
X147975000Y-103675000D01*
G75*
G02*
X148225000Y-103925000I0J-250000D01*
G01*
X148225000Y-105075000D01*
G75*
G02*
X147975000Y-105325000I-250000J0D01*
G01*
X146875000Y-105325000D01*
G75*
G02*
X146625000Y-105075000I0J250000D01*
G01*
G37*
G36*
G01*
X143775000Y-105075000D02*
X143775000Y-103925000D01*
G75*
G02*
X144025000Y-103675000I250000J0D01*
G01*
X145125000Y-103675000D01*
G75*
G02*
X145375000Y-103925000I0J-250000D01*
G01*
X145375000Y-105075000D01*
G75*
G02*
X145125000Y-105325000I-250000J0D01*
G01*
X144025000Y-105325000D01*
G75*
G02*
X143775000Y-105075000I0J250000D01*
G01*
G37*
%TD*%
%TO.C,D1*%
G36*
G01*
X146625000Y-101325000D02*
X146625000Y-100175000D01*
G75*
G02*
X146875000Y-99925000I250000J0D01*
G01*
X147975000Y-99925000D01*
G75*
G02*
X148225000Y-100175000I0J-250000D01*
G01*
X148225000Y-101325000D01*
G75*
G02*
X147975000Y-101575000I-250000J0D01*
G01*
X146875000Y-101575000D01*
G75*
G02*
X146625000Y-101325000I0J250000D01*
G01*
G37*
G36*
G01*
X143775000Y-101325000D02*
X143775000Y-100175000D01*
G75*
G02*
X144025000Y-99925000I250000J0D01*
G01*
X145125000Y-99925000D01*
G75*
G02*
X145375000Y-100175000I0J-250000D01*
G01*
X145375000Y-101325000D01*
G75*
G02*
X145125000Y-101575000I-250000J0D01*
G01*
X144025000Y-101575000D01*
G75*
G02*
X143775000Y-101325000I0J250000D01*
G01*
G37*
%TD*%
M02*
