%TF.GenerationSoftware,KiCad,Pcbnew,(5.1.6)-1*%
%TF.CreationDate,2020-08-29T13:30:18-04:00*%
%TF.ProjectId,555-timer-rev1-0,3535352d-7469-46d6-9572-2d726576312d,rev?*%
%TF.SameCoordinates,Original*%
%TF.FileFunction,Soldermask,Bot*%
%TF.FilePolarity,Negative*%
%FSLAX46Y46*%
G04 Gerber Fmt 4.6, Leading zero omitted, Abs format (unit mm)*
G04 Created by KiCad (PCBNEW (5.1.6)-1) date 2020-08-29 13:30:18*
%MOMM*%
%LPD*%
G01*
G04 APERTURE LIST*
%ADD10C,0.100000*%
%ADD11R,1.800000X1.800000*%
%ADD12O,1.800000X1.800000*%
G04 APERTURE END LIST*
%TO.C,R4*%
G36*
G01*
X145092544Y-94225000D02*
X146407456Y-94225000D01*
G75*
G02*
X146675000Y-94492544I0J-267544D01*
G01*
X146675000Y-95482456D01*
G75*
G02*
X146407456Y-95750000I-267544J0D01*
G01*
X145092544Y-95750000D01*
G75*
G02*
X144825000Y-95482456I0J267544D01*
G01*
X144825000Y-94492544D01*
G75*
G02*
X145092544Y-94225000I267544J0D01*
G01*
G37*
G36*
G01*
X145092544Y-91250000D02*
X146407456Y-91250000D01*
G75*
G02*
X146675000Y-91517544I0J-267544D01*
G01*
X146675000Y-92507456D01*
G75*
G02*
X146407456Y-92775000I-267544J0D01*
G01*
X145092544Y-92775000D01*
G75*
G02*
X144825000Y-92507456I0J267544D01*
G01*
X144825000Y-91517544D01*
G75*
G02*
X145092544Y-91250000I267544J0D01*
G01*
G37*
%TD*%
%TO.C,R3*%
G36*
G01*
X145092544Y-88475000D02*
X146407456Y-88475000D01*
G75*
G02*
X146675000Y-88742544I0J-267544D01*
G01*
X146675000Y-89732456D01*
G75*
G02*
X146407456Y-90000000I-267544J0D01*
G01*
X145092544Y-90000000D01*
G75*
G02*
X144825000Y-89732456I0J267544D01*
G01*
X144825000Y-88742544D01*
G75*
G02*
X145092544Y-88475000I267544J0D01*
G01*
G37*
G36*
G01*
X145092544Y-85500000D02*
X146407456Y-85500000D01*
G75*
G02*
X146675000Y-85767544I0J-267544D01*
G01*
X146675000Y-86757456D01*
G75*
G02*
X146407456Y-87025000I-267544J0D01*
G01*
X145092544Y-87025000D01*
G75*
G02*
X144825000Y-86757456I0J267544D01*
G01*
X144825000Y-85767544D01*
G75*
G02*
X145092544Y-85500000I267544J0D01*
G01*
G37*
%TD*%
%TO.C,R2*%
G36*
G01*
X145092544Y-82975000D02*
X146407456Y-82975000D01*
G75*
G02*
X146675000Y-83242544I0J-267544D01*
G01*
X146675000Y-84232456D01*
G75*
G02*
X146407456Y-84500000I-267544J0D01*
G01*
X145092544Y-84500000D01*
G75*
G02*
X144825000Y-84232456I0J267544D01*
G01*
X144825000Y-83242544D01*
G75*
G02*
X145092544Y-82975000I267544J0D01*
G01*
G37*
G36*
G01*
X145092544Y-80000000D02*
X146407456Y-80000000D01*
G75*
G02*
X146675000Y-80267544I0J-267544D01*
G01*
X146675000Y-81257456D01*
G75*
G02*
X146407456Y-81525000I-267544J0D01*
G01*
X145092544Y-81525000D01*
G75*
G02*
X144825000Y-81257456I0J267544D01*
G01*
X144825000Y-80267544D01*
G75*
G02*
X145092544Y-80000000I267544J0D01*
G01*
G37*
%TD*%
%TO.C,R1*%
G36*
G01*
X149775000Y-82592544D02*
X149775000Y-83907456D01*
G75*
G02*
X149507456Y-84175000I-267544J0D01*
G01*
X148517544Y-84175000D01*
G75*
G02*
X148250000Y-83907456I0J267544D01*
G01*
X148250000Y-82592544D01*
G75*
G02*
X148517544Y-82325000I267544J0D01*
G01*
X149507456Y-82325000D01*
G75*
G02*
X149775000Y-82592544I0J-267544D01*
G01*
G37*
G36*
G01*
X152750000Y-82592544D02*
X152750000Y-83907456D01*
G75*
G02*
X152482456Y-84175000I-267544J0D01*
G01*
X151492544Y-84175000D01*
G75*
G02*
X151225000Y-83907456I0J267544D01*
G01*
X151225000Y-82592544D01*
G75*
G02*
X151492544Y-82325000I267544J0D01*
G01*
X152482456Y-82325000D01*
G75*
G02*
X152750000Y-82592544I0J-267544D01*
G01*
G37*
%TD*%
D10*
%TO.C,JP4*%
G36*
X151215245Y-99049039D02*
G01*
X151205866Y-99046194D01*
X151197221Y-99041573D01*
X151189645Y-99035355D01*
X151183397Y-99027735D01*
X150683397Y-98277735D01*
X150678786Y-98269086D01*
X150675951Y-98259703D01*
X150675000Y-98249948D01*
X150675971Y-98240194D01*
X150678826Y-98230818D01*
X150683397Y-98222265D01*
X151183397Y-97472265D01*
X151189608Y-97464682D01*
X151197178Y-97458456D01*
X151205818Y-97453826D01*
X151215194Y-97450971D01*
X151225000Y-97450000D01*
X152225000Y-97450000D01*
X152234755Y-97450961D01*
X152244134Y-97453806D01*
X152252779Y-97458427D01*
X152260355Y-97464645D01*
X152266573Y-97472221D01*
X152271194Y-97480866D01*
X152274039Y-97490245D01*
X152275000Y-97500000D01*
X152275000Y-99000000D01*
X152274039Y-99009755D01*
X152271194Y-99019134D01*
X152266573Y-99027779D01*
X152260355Y-99035355D01*
X152252779Y-99041573D01*
X152244134Y-99046194D01*
X152234755Y-99049039D01*
X152225000Y-99050000D01*
X151225000Y-99050000D01*
X151215245Y-99049039D01*
G37*
G36*
X149765245Y-99049039D02*
G01*
X149755866Y-99046194D01*
X149747221Y-99041573D01*
X149739645Y-99035355D01*
X149733427Y-99027779D01*
X149728806Y-99019134D01*
X149725961Y-99009755D01*
X149725000Y-99000000D01*
X149725000Y-97500000D01*
X149725961Y-97490245D01*
X149728806Y-97480866D01*
X149733427Y-97472221D01*
X149739645Y-97464645D01*
X149747221Y-97458427D01*
X149755866Y-97453806D01*
X149765245Y-97450961D01*
X149775000Y-97450000D01*
X150925000Y-97450000D01*
X150934755Y-97450961D01*
X150944134Y-97453806D01*
X150952779Y-97458427D01*
X150960355Y-97464645D01*
X150966573Y-97472221D01*
X150971194Y-97480866D01*
X150974039Y-97490245D01*
X150975000Y-97500000D01*
X150974039Y-97509755D01*
X150971194Y-97519134D01*
X150966603Y-97527735D01*
X150485093Y-98250000D01*
X150966603Y-98972265D01*
X150971214Y-98980914D01*
X150974049Y-98990297D01*
X150975000Y-99000052D01*
X150974029Y-99009806D01*
X150971174Y-99019182D01*
X150966544Y-99027822D01*
X150960318Y-99035392D01*
X150952735Y-99041603D01*
X150944086Y-99046214D01*
X150934703Y-99049049D01*
X150925000Y-99050000D01*
X149775000Y-99050000D01*
X149765245Y-99049039D01*
G37*
%TD*%
%TO.C,JP3*%
G36*
X151215245Y-95299039D02*
G01*
X151205866Y-95296194D01*
X151197221Y-95291573D01*
X151189645Y-95285355D01*
X151183397Y-95277735D01*
X150683397Y-94527735D01*
X150678786Y-94519086D01*
X150675951Y-94509703D01*
X150675000Y-94499948D01*
X150675971Y-94490194D01*
X150678826Y-94480818D01*
X150683397Y-94472265D01*
X151183397Y-93722265D01*
X151189608Y-93714682D01*
X151197178Y-93708456D01*
X151205818Y-93703826D01*
X151215194Y-93700971D01*
X151225000Y-93700000D01*
X152225000Y-93700000D01*
X152234755Y-93700961D01*
X152244134Y-93703806D01*
X152252779Y-93708427D01*
X152260355Y-93714645D01*
X152266573Y-93722221D01*
X152271194Y-93730866D01*
X152274039Y-93740245D01*
X152275000Y-93750000D01*
X152275000Y-95250000D01*
X152274039Y-95259755D01*
X152271194Y-95269134D01*
X152266573Y-95277779D01*
X152260355Y-95285355D01*
X152252779Y-95291573D01*
X152244134Y-95296194D01*
X152234755Y-95299039D01*
X152225000Y-95300000D01*
X151225000Y-95300000D01*
X151215245Y-95299039D01*
G37*
G36*
X149765245Y-95299039D02*
G01*
X149755866Y-95296194D01*
X149747221Y-95291573D01*
X149739645Y-95285355D01*
X149733427Y-95277779D01*
X149728806Y-95269134D01*
X149725961Y-95259755D01*
X149725000Y-95250000D01*
X149725000Y-93750000D01*
X149725961Y-93740245D01*
X149728806Y-93730866D01*
X149733427Y-93722221D01*
X149739645Y-93714645D01*
X149747221Y-93708427D01*
X149755866Y-93703806D01*
X149765245Y-93700961D01*
X149775000Y-93700000D01*
X150925000Y-93700000D01*
X150934755Y-93700961D01*
X150944134Y-93703806D01*
X150952779Y-93708427D01*
X150960355Y-93714645D01*
X150966573Y-93722221D01*
X150971194Y-93730866D01*
X150974039Y-93740245D01*
X150975000Y-93750000D01*
X150974039Y-93759755D01*
X150971194Y-93769134D01*
X150966603Y-93777735D01*
X150485093Y-94500000D01*
X150966603Y-95222265D01*
X150971214Y-95230914D01*
X150974049Y-95240297D01*
X150975000Y-95250052D01*
X150974029Y-95259806D01*
X150971174Y-95269182D01*
X150966544Y-95277822D01*
X150960318Y-95285392D01*
X150952735Y-95291603D01*
X150944086Y-95296214D01*
X150934703Y-95299049D01*
X150925000Y-95300000D01*
X149775000Y-95300000D01*
X149765245Y-95299039D01*
G37*
%TD*%
%TO.C,JP2*%
G36*
X151215245Y-91549039D02*
G01*
X151205866Y-91546194D01*
X151197221Y-91541573D01*
X151189645Y-91535355D01*
X151183397Y-91527735D01*
X150683397Y-90777735D01*
X150678786Y-90769086D01*
X150675951Y-90759703D01*
X150675000Y-90749948D01*
X150675971Y-90740194D01*
X150678826Y-90730818D01*
X150683397Y-90722265D01*
X151183397Y-89972265D01*
X151189608Y-89964682D01*
X151197178Y-89958456D01*
X151205818Y-89953826D01*
X151215194Y-89950971D01*
X151225000Y-89950000D01*
X152225000Y-89950000D01*
X152234755Y-89950961D01*
X152244134Y-89953806D01*
X152252779Y-89958427D01*
X152260355Y-89964645D01*
X152266573Y-89972221D01*
X152271194Y-89980866D01*
X152274039Y-89990245D01*
X152275000Y-90000000D01*
X152275000Y-91500000D01*
X152274039Y-91509755D01*
X152271194Y-91519134D01*
X152266573Y-91527779D01*
X152260355Y-91535355D01*
X152252779Y-91541573D01*
X152244134Y-91546194D01*
X152234755Y-91549039D01*
X152225000Y-91550000D01*
X151225000Y-91550000D01*
X151215245Y-91549039D01*
G37*
G36*
X149765245Y-91549039D02*
G01*
X149755866Y-91546194D01*
X149747221Y-91541573D01*
X149739645Y-91535355D01*
X149733427Y-91527779D01*
X149728806Y-91519134D01*
X149725961Y-91509755D01*
X149725000Y-91500000D01*
X149725000Y-90000000D01*
X149725961Y-89990245D01*
X149728806Y-89980866D01*
X149733427Y-89972221D01*
X149739645Y-89964645D01*
X149747221Y-89958427D01*
X149755866Y-89953806D01*
X149765245Y-89950961D01*
X149775000Y-89950000D01*
X150925000Y-89950000D01*
X150934755Y-89950961D01*
X150944134Y-89953806D01*
X150952779Y-89958427D01*
X150960355Y-89964645D01*
X150966573Y-89972221D01*
X150971194Y-89980866D01*
X150974039Y-89990245D01*
X150975000Y-90000000D01*
X150974039Y-90009755D01*
X150971194Y-90019134D01*
X150966603Y-90027735D01*
X150485093Y-90750000D01*
X150966603Y-91472265D01*
X150971214Y-91480914D01*
X150974049Y-91490297D01*
X150975000Y-91500052D01*
X150974029Y-91509806D01*
X150971174Y-91519182D01*
X150966544Y-91527822D01*
X150960318Y-91535392D01*
X150952735Y-91541603D01*
X150944086Y-91546214D01*
X150934703Y-91549049D01*
X150925000Y-91550000D01*
X149775000Y-91550000D01*
X149765245Y-91549039D01*
G37*
%TD*%
%TO.C,JP5*%
G36*
X151215245Y-102799039D02*
G01*
X151205866Y-102796194D01*
X151197221Y-102791573D01*
X151189645Y-102785355D01*
X151183397Y-102777735D01*
X150683397Y-102027735D01*
X150678786Y-102019086D01*
X150675951Y-102009703D01*
X150675000Y-101999948D01*
X150675971Y-101990194D01*
X150678826Y-101980818D01*
X150683397Y-101972265D01*
X151183397Y-101222265D01*
X151189608Y-101214682D01*
X151197178Y-101208456D01*
X151205818Y-101203826D01*
X151215194Y-101200971D01*
X151225000Y-101200000D01*
X152225000Y-101200000D01*
X152234755Y-101200961D01*
X152244134Y-101203806D01*
X152252779Y-101208427D01*
X152260355Y-101214645D01*
X152266573Y-101222221D01*
X152271194Y-101230866D01*
X152274039Y-101240245D01*
X152275000Y-101250000D01*
X152275000Y-102750000D01*
X152274039Y-102759755D01*
X152271194Y-102769134D01*
X152266573Y-102777779D01*
X152260355Y-102785355D01*
X152252779Y-102791573D01*
X152244134Y-102796194D01*
X152234755Y-102799039D01*
X152225000Y-102800000D01*
X151225000Y-102800000D01*
X151215245Y-102799039D01*
G37*
G36*
X149765245Y-102799039D02*
G01*
X149755866Y-102796194D01*
X149747221Y-102791573D01*
X149739645Y-102785355D01*
X149733427Y-102777779D01*
X149728806Y-102769134D01*
X149725961Y-102759755D01*
X149725000Y-102750000D01*
X149725000Y-101250000D01*
X149725961Y-101240245D01*
X149728806Y-101230866D01*
X149733427Y-101222221D01*
X149739645Y-101214645D01*
X149747221Y-101208427D01*
X149755866Y-101203806D01*
X149765245Y-101200961D01*
X149775000Y-101200000D01*
X150925000Y-101200000D01*
X150934755Y-101200961D01*
X150944134Y-101203806D01*
X150952779Y-101208427D01*
X150960355Y-101214645D01*
X150966573Y-101222221D01*
X150971194Y-101230866D01*
X150974039Y-101240245D01*
X150975000Y-101250000D01*
X150974039Y-101259755D01*
X150971194Y-101269134D01*
X150966603Y-101277735D01*
X150485093Y-102000000D01*
X150966603Y-102722265D01*
X150971214Y-102730914D01*
X150974049Y-102740297D01*
X150975000Y-102750052D01*
X150974029Y-102759806D01*
X150971174Y-102769182D01*
X150966544Y-102777822D01*
X150960318Y-102785392D01*
X150952735Y-102791603D01*
X150944086Y-102796214D01*
X150934703Y-102799049D01*
X150925000Y-102800000D01*
X149775000Y-102800000D01*
X149765245Y-102799039D01*
G37*
%TD*%
%TO.C,JP1*%
G36*
X151215245Y-87799039D02*
G01*
X151205866Y-87796194D01*
X151197221Y-87791573D01*
X151189645Y-87785355D01*
X151183397Y-87777735D01*
X150683397Y-87027735D01*
X150678786Y-87019086D01*
X150675951Y-87009703D01*
X150675000Y-86999948D01*
X150675971Y-86990194D01*
X150678826Y-86980818D01*
X150683397Y-86972265D01*
X151183397Y-86222265D01*
X151189608Y-86214682D01*
X151197178Y-86208456D01*
X151205818Y-86203826D01*
X151215194Y-86200971D01*
X151225000Y-86200000D01*
X152225000Y-86200000D01*
X152234755Y-86200961D01*
X152244134Y-86203806D01*
X152252779Y-86208427D01*
X152260355Y-86214645D01*
X152266573Y-86222221D01*
X152271194Y-86230866D01*
X152274039Y-86240245D01*
X152275000Y-86250000D01*
X152275000Y-87750000D01*
X152274039Y-87759755D01*
X152271194Y-87769134D01*
X152266573Y-87777779D01*
X152260355Y-87785355D01*
X152252779Y-87791573D01*
X152244134Y-87796194D01*
X152234755Y-87799039D01*
X152225000Y-87800000D01*
X151225000Y-87800000D01*
X151215245Y-87799039D01*
G37*
G36*
X149765245Y-87799039D02*
G01*
X149755866Y-87796194D01*
X149747221Y-87791573D01*
X149739645Y-87785355D01*
X149733427Y-87777779D01*
X149728806Y-87769134D01*
X149725961Y-87759755D01*
X149725000Y-87750000D01*
X149725000Y-86250000D01*
X149725961Y-86240245D01*
X149728806Y-86230866D01*
X149733427Y-86222221D01*
X149739645Y-86214645D01*
X149747221Y-86208427D01*
X149755866Y-86203806D01*
X149765245Y-86200961D01*
X149775000Y-86200000D01*
X150925000Y-86200000D01*
X150934755Y-86200961D01*
X150944134Y-86203806D01*
X150952779Y-86208427D01*
X150960355Y-86214645D01*
X150966573Y-86222221D01*
X150971194Y-86230866D01*
X150974039Y-86240245D01*
X150975000Y-86250000D01*
X150974039Y-86259755D01*
X150971194Y-86269134D01*
X150966603Y-86277735D01*
X150485093Y-87000000D01*
X150966603Y-87722265D01*
X150971214Y-87730914D01*
X150974049Y-87740297D01*
X150975000Y-87750052D01*
X150974029Y-87759806D01*
X150971174Y-87769182D01*
X150966544Y-87777822D01*
X150960318Y-87785392D01*
X150952735Y-87791603D01*
X150944086Y-87796214D01*
X150934703Y-87799049D01*
X150925000Y-87800000D01*
X149775000Y-87800000D01*
X149765245Y-87799039D01*
G37*
%TD*%
D11*
%TO.C,J1*%
X147500000Y-75000000D03*
D12*
X150040000Y-75000000D03*
%TD*%
%TO.C,C2*%
G36*
G01*
X145092544Y-99725000D02*
X146407456Y-99725000D01*
G75*
G02*
X146675000Y-99992544I0J-267544D01*
G01*
X146675000Y-100982456D01*
G75*
G02*
X146407456Y-101250000I-267544J0D01*
G01*
X145092544Y-101250000D01*
G75*
G02*
X144825000Y-100982456I0J267544D01*
G01*
X144825000Y-99992544D01*
G75*
G02*
X145092544Y-99725000I267544J0D01*
G01*
G37*
G36*
G01*
X145092544Y-96750000D02*
X146407456Y-96750000D01*
G75*
G02*
X146675000Y-97017544I0J-267544D01*
G01*
X146675000Y-98007456D01*
G75*
G02*
X146407456Y-98275000I-267544J0D01*
G01*
X145092544Y-98275000D01*
G75*
G02*
X144825000Y-98007456I0J267544D01*
G01*
X144825000Y-97017544D01*
G75*
G02*
X145092544Y-96750000I267544J0D01*
G01*
G37*
%TD*%
%TO.C,C1*%
G36*
G01*
X149775000Y-78842544D02*
X149775000Y-80157456D01*
G75*
G02*
X149507456Y-80425000I-267544J0D01*
G01*
X148517544Y-80425000D01*
G75*
G02*
X148250000Y-80157456I0J267544D01*
G01*
X148250000Y-78842544D01*
G75*
G02*
X148517544Y-78575000I267544J0D01*
G01*
X149507456Y-78575000D01*
G75*
G02*
X149775000Y-78842544I0J-267544D01*
G01*
G37*
G36*
G01*
X152750000Y-78842544D02*
X152750000Y-80157456D01*
G75*
G02*
X152482456Y-80425000I-267544J0D01*
G01*
X151492544Y-80425000D01*
G75*
G02*
X151225000Y-80157456I0J267544D01*
G01*
X151225000Y-78842544D01*
G75*
G02*
X151492544Y-78575000I267544J0D01*
G01*
X152482456Y-78575000D01*
G75*
G02*
X152750000Y-78842544I0J-267544D01*
G01*
G37*
%TD*%
M02*
