%TF.GenerationSoftware,KiCad,Pcbnew,(5.1.6)-1*%
%TF.CreationDate,2020-08-29T13:30:18-04:00*%
%TF.ProjectId,555-timer-rev1-0,3535352d-7469-46d6-9572-2d726576312d,rev?*%
%TF.SameCoordinates,Original*%
%TF.FileFunction,Legend,Bot*%
%TF.FilePolarity,Positive*%
%FSLAX46Y46*%
G04 Gerber Fmt 4.6, Leading zero omitted, Abs format (unit mm)*
G04 Created by KiCad (PCBNEW (5.1.6)-1) date 2020-08-29 13:30:18*
%MOMM*%
%LPD*%
G01*
G04 APERTURE LIST*
%ADD10C,0.125000*%
%ADD11C,0.120000*%
%ADD12C,0.150000*%
G04 APERTURE END LIST*
D10*
X152630952Y-104351190D02*
X152869047Y-104351190D01*
X152892857Y-104589285D01*
X152869047Y-104565476D01*
X152821428Y-104541666D01*
X152702380Y-104541666D01*
X152654761Y-104565476D01*
X152630952Y-104589285D01*
X152607142Y-104636904D01*
X152607142Y-104755952D01*
X152630952Y-104803571D01*
X152654761Y-104827380D01*
X152702380Y-104851190D01*
X152821428Y-104851190D01*
X152869047Y-104827380D01*
X152892857Y-104803571D01*
X152154761Y-104351190D02*
X152392857Y-104351190D01*
X152416666Y-104589285D01*
X152392857Y-104565476D01*
X152345238Y-104541666D01*
X152226190Y-104541666D01*
X152178571Y-104565476D01*
X152154761Y-104589285D01*
X152130952Y-104636904D01*
X152130952Y-104755952D01*
X152154761Y-104803571D01*
X152178571Y-104827380D01*
X152226190Y-104851190D01*
X152345238Y-104851190D01*
X152392857Y-104827380D01*
X152416666Y-104803571D01*
X151678571Y-104351190D02*
X151916666Y-104351190D01*
X151940476Y-104589285D01*
X151916666Y-104565476D01*
X151869047Y-104541666D01*
X151750000Y-104541666D01*
X151702380Y-104565476D01*
X151678571Y-104589285D01*
X151654761Y-104636904D01*
X151654761Y-104755952D01*
X151678571Y-104803571D01*
X151702380Y-104827380D01*
X151750000Y-104851190D01*
X151869047Y-104851190D01*
X151916666Y-104827380D01*
X151940476Y-104803571D01*
X151130952Y-104351190D02*
X150845238Y-104351190D01*
X150988095Y-104851190D02*
X150988095Y-104351190D01*
X150678571Y-104851190D02*
X150678571Y-104517857D01*
X150678571Y-104351190D02*
X150702380Y-104375000D01*
X150678571Y-104398809D01*
X150654761Y-104375000D01*
X150678571Y-104351190D01*
X150678571Y-104398809D01*
X150440476Y-104851190D02*
X150440476Y-104517857D01*
X150440476Y-104565476D02*
X150416666Y-104541666D01*
X150369047Y-104517857D01*
X150297619Y-104517857D01*
X150250000Y-104541666D01*
X150226190Y-104589285D01*
X150226190Y-104851190D01*
X150226190Y-104589285D02*
X150202380Y-104541666D01*
X150154761Y-104517857D01*
X150083333Y-104517857D01*
X150035714Y-104541666D01*
X150011904Y-104589285D01*
X150011904Y-104851190D01*
X149583333Y-104827380D02*
X149630952Y-104851190D01*
X149726190Y-104851190D01*
X149773809Y-104827380D01*
X149797619Y-104779761D01*
X149797619Y-104589285D01*
X149773809Y-104541666D01*
X149726190Y-104517857D01*
X149630952Y-104517857D01*
X149583333Y-104541666D01*
X149559523Y-104589285D01*
X149559523Y-104636904D01*
X149797619Y-104684523D01*
X149345238Y-104851190D02*
X149345238Y-104517857D01*
X149345238Y-104613095D02*
X149321428Y-104565476D01*
X149297619Y-104541666D01*
X149250000Y-104517857D01*
X149202380Y-104517857D01*
X148654761Y-104660714D02*
X148273809Y-104660714D01*
X147369047Y-104851190D02*
X147535714Y-104613095D01*
X147654761Y-104851190D02*
X147654761Y-104351190D01*
X147464285Y-104351190D01*
X147416666Y-104375000D01*
X147392857Y-104398809D01*
X147369047Y-104446428D01*
X147369047Y-104517857D01*
X147392857Y-104565476D01*
X147416666Y-104589285D01*
X147464285Y-104613095D01*
X147654761Y-104613095D01*
X146964285Y-104827380D02*
X147011904Y-104851190D01*
X147107142Y-104851190D01*
X147154761Y-104827380D01*
X147178571Y-104779761D01*
X147178571Y-104589285D01*
X147154761Y-104541666D01*
X147107142Y-104517857D01*
X147011904Y-104517857D01*
X146964285Y-104541666D01*
X146940476Y-104589285D01*
X146940476Y-104636904D01*
X147178571Y-104684523D01*
X146773809Y-104517857D02*
X146654761Y-104851190D01*
X146535714Y-104517857D01*
X145702380Y-104851190D02*
X145988095Y-104851190D01*
X145845238Y-104851190D02*
X145845238Y-104351190D01*
X145892857Y-104422619D01*
X145940476Y-104470238D01*
X145988095Y-104494047D01*
X145488095Y-104660714D02*
X145107142Y-104660714D01*
X144773809Y-104351190D02*
X144726190Y-104351190D01*
X144678571Y-104375000D01*
X144654761Y-104398809D01*
X144630952Y-104446428D01*
X144607142Y-104541666D01*
X144607142Y-104660714D01*
X144630952Y-104755952D01*
X144654761Y-104803571D01*
X144678571Y-104827380D01*
X144726190Y-104851190D01*
X144773809Y-104851190D01*
X144821428Y-104827380D01*
X144845238Y-104803571D01*
X144869047Y-104755952D01*
X144892857Y-104660714D01*
X144892857Y-104541666D01*
X144869047Y-104446428D01*
X144845238Y-104398809D01*
X144821428Y-104375000D01*
X144773809Y-104351190D01*
X151821428Y-105583333D02*
X151583333Y-105583333D01*
X151869047Y-105726190D02*
X151702380Y-105226190D01*
X151535714Y-105726190D01*
X151297619Y-105726190D02*
X151345238Y-105702380D01*
X151369047Y-105654761D01*
X151369047Y-105226190D01*
X150916666Y-105702380D02*
X150964285Y-105726190D01*
X151059523Y-105726190D01*
X151107142Y-105702380D01*
X151130952Y-105654761D01*
X151130952Y-105464285D01*
X151107142Y-105416666D01*
X151059523Y-105392857D01*
X150964285Y-105392857D01*
X150916666Y-105416666D01*
X150892857Y-105464285D01*
X150892857Y-105511904D01*
X151130952Y-105559523D01*
X150726190Y-105726190D02*
X150464285Y-105392857D01*
X150726190Y-105392857D02*
X150464285Y-105726190D01*
X150059523Y-105726190D02*
X150059523Y-105464285D01*
X150083333Y-105416666D01*
X150130952Y-105392857D01*
X150226190Y-105392857D01*
X150273809Y-105416666D01*
X150059523Y-105702380D02*
X150107142Y-105726190D01*
X150226190Y-105726190D01*
X150273809Y-105702380D01*
X150297619Y-105654761D01*
X150297619Y-105607142D01*
X150273809Y-105559523D01*
X150226190Y-105535714D01*
X150107142Y-105535714D01*
X150059523Y-105511904D01*
X149821428Y-105392857D02*
X149821428Y-105726190D01*
X149821428Y-105440476D02*
X149797619Y-105416666D01*
X149750000Y-105392857D01*
X149678571Y-105392857D01*
X149630952Y-105416666D01*
X149607142Y-105464285D01*
X149607142Y-105726190D01*
X149154761Y-105726190D02*
X149154761Y-105226190D01*
X149154761Y-105702380D02*
X149202380Y-105726190D01*
X149297619Y-105726190D01*
X149345238Y-105702380D01*
X149369047Y-105678571D01*
X149392857Y-105630952D01*
X149392857Y-105488095D01*
X149369047Y-105440476D01*
X149345238Y-105416666D01*
X149297619Y-105392857D01*
X149202380Y-105392857D01*
X149154761Y-105416666D01*
X148726190Y-105702380D02*
X148773809Y-105726190D01*
X148869047Y-105726190D01*
X148916666Y-105702380D01*
X148940476Y-105654761D01*
X148940476Y-105464285D01*
X148916666Y-105416666D01*
X148869047Y-105392857D01*
X148773809Y-105392857D01*
X148726190Y-105416666D01*
X148702380Y-105464285D01*
X148702380Y-105511904D01*
X148940476Y-105559523D01*
X148488095Y-105726190D02*
X148488095Y-105392857D01*
X148488095Y-105488095D02*
X148464285Y-105440476D01*
X148440476Y-105416666D01*
X148392857Y-105392857D01*
X148345238Y-105392857D01*
X147630952Y-105464285D02*
X147797619Y-105464285D01*
X147797619Y-105726190D02*
X147797619Y-105226190D01*
X147559523Y-105226190D01*
X147369047Y-105726190D02*
X147369047Y-105392857D01*
X147369047Y-105488095D02*
X147345238Y-105440476D01*
X147321428Y-105416666D01*
X147273809Y-105392857D01*
X147226190Y-105392857D01*
X146845238Y-105726190D02*
X146845238Y-105464285D01*
X146869047Y-105416666D01*
X146916666Y-105392857D01*
X147011904Y-105392857D01*
X147059523Y-105416666D01*
X146845238Y-105702380D02*
X146892857Y-105726190D01*
X147011904Y-105726190D01*
X147059523Y-105702380D01*
X147083333Y-105654761D01*
X147083333Y-105607142D01*
X147059523Y-105559523D01*
X147011904Y-105535714D01*
X146892857Y-105535714D01*
X146845238Y-105511904D01*
X146630952Y-105702380D02*
X146583333Y-105726190D01*
X146488095Y-105726190D01*
X146440476Y-105702380D01*
X146416666Y-105654761D01*
X146416666Y-105630952D01*
X146440476Y-105583333D01*
X146488095Y-105559523D01*
X146559523Y-105559523D01*
X146607142Y-105535714D01*
X146630952Y-105488095D01*
X146630952Y-105464285D01*
X146607142Y-105416666D01*
X146559523Y-105392857D01*
X146488095Y-105392857D01*
X146440476Y-105416666D01*
X146011904Y-105702380D02*
X146059523Y-105726190D01*
X146154761Y-105726190D01*
X146202380Y-105702380D01*
X146226190Y-105654761D01*
X146226190Y-105464285D01*
X146202380Y-105416666D01*
X146154761Y-105392857D01*
X146059523Y-105392857D01*
X146011904Y-105416666D01*
X145988095Y-105464285D01*
X145988095Y-105511904D01*
X146226190Y-105559523D01*
X145773809Y-105726190D02*
X145773809Y-105392857D01*
X145773809Y-105488095D02*
X145750000Y-105440476D01*
X145726190Y-105416666D01*
X145678571Y-105392857D01*
X145630952Y-105392857D01*
X150845238Y-106601190D02*
X150750000Y-106601190D01*
X150702380Y-106577380D01*
X150678571Y-106553571D01*
X150630952Y-106482142D01*
X150607142Y-106386904D01*
X150607142Y-106196428D01*
X150630952Y-106148809D01*
X150654761Y-106125000D01*
X150702380Y-106101190D01*
X150797619Y-106101190D01*
X150845238Y-106125000D01*
X150869047Y-106148809D01*
X150892857Y-106196428D01*
X150892857Y-106315476D01*
X150869047Y-106363095D01*
X150845238Y-106386904D01*
X150797619Y-106410714D01*
X150702380Y-106410714D01*
X150654761Y-106386904D01*
X150630952Y-106363095D01*
X150607142Y-106315476D01*
X150035714Y-106458333D02*
X149797619Y-106458333D01*
X150083333Y-106601190D02*
X149916666Y-106101190D01*
X149750000Y-106601190D01*
X149369047Y-106267857D02*
X149369047Y-106601190D01*
X149583333Y-106267857D02*
X149583333Y-106529761D01*
X149559523Y-106577380D01*
X149511904Y-106601190D01*
X149440476Y-106601190D01*
X149392857Y-106577380D01*
X149369047Y-106553571D01*
X148916666Y-106267857D02*
X148916666Y-106672619D01*
X148940476Y-106720238D01*
X148964285Y-106744047D01*
X149011904Y-106767857D01*
X149083333Y-106767857D01*
X149130952Y-106744047D01*
X148916666Y-106577380D02*
X148964285Y-106601190D01*
X149059523Y-106601190D01*
X149107142Y-106577380D01*
X149130952Y-106553571D01*
X149154761Y-106505952D01*
X149154761Y-106363095D01*
X149130952Y-106315476D01*
X149107142Y-106291666D01*
X149059523Y-106267857D01*
X148964285Y-106267857D01*
X148916666Y-106291666D01*
X148321428Y-106148809D02*
X148297619Y-106125000D01*
X148250000Y-106101190D01*
X148130952Y-106101190D01*
X148083333Y-106125000D01*
X148059523Y-106148809D01*
X148035714Y-106196428D01*
X148035714Y-106244047D01*
X148059523Y-106315476D01*
X148345238Y-106601190D01*
X148035714Y-106601190D01*
X147726190Y-106101190D02*
X147678571Y-106101190D01*
X147630952Y-106125000D01*
X147607142Y-106148809D01*
X147583333Y-106196428D01*
X147559523Y-106291666D01*
X147559523Y-106410714D01*
X147583333Y-106505952D01*
X147607142Y-106553571D01*
X147630952Y-106577380D01*
X147678571Y-106601190D01*
X147726190Y-106601190D01*
X147773809Y-106577380D01*
X147797619Y-106553571D01*
X147821428Y-106505952D01*
X147845238Y-106410714D01*
X147845238Y-106291666D01*
X147821428Y-106196428D01*
X147797619Y-106148809D01*
X147773809Y-106125000D01*
X147726190Y-106101190D01*
X147369047Y-106148809D02*
X147345238Y-106125000D01*
X147297619Y-106101190D01*
X147178571Y-106101190D01*
X147130952Y-106125000D01*
X147107142Y-106148809D01*
X147083333Y-106196428D01*
X147083333Y-106244047D01*
X147107142Y-106315476D01*
X147392857Y-106601190D01*
X147083333Y-106601190D01*
X146773809Y-106101190D02*
X146726190Y-106101190D01*
X146678571Y-106125000D01*
X146654761Y-106148809D01*
X146630952Y-106196428D01*
X146607142Y-106291666D01*
X146607142Y-106410714D01*
X146630952Y-106505952D01*
X146654761Y-106553571D01*
X146678571Y-106577380D01*
X146726190Y-106601190D01*
X146773809Y-106601190D01*
X146821428Y-106577380D01*
X146845238Y-106553571D01*
X146869047Y-106505952D01*
X146892857Y-106410714D01*
X146892857Y-106291666D01*
X146869047Y-106196428D01*
X146845238Y-106148809D01*
X146821428Y-106125000D01*
X146773809Y-106101190D01*
D11*
%TO.C,R4*%
X144840000Y-92897936D02*
X144840000Y-94102064D01*
X146660000Y-92897936D02*
X146660000Y-94102064D01*
%TO.C,R3*%
X144840000Y-87147936D02*
X144840000Y-88352064D01*
X146660000Y-87147936D02*
X146660000Y-88352064D01*
%TO.C,R2*%
X144840000Y-81647936D02*
X144840000Y-82852064D01*
X146660000Y-81647936D02*
X146660000Y-82852064D01*
%TO.C,R1*%
X151102064Y-82340000D02*
X149897936Y-82340000D01*
X151102064Y-84160000D02*
X149897936Y-84160000D01*
%TO.C,JP4*%
X152400000Y-99250000D02*
X152400000Y-97250000D01*
X149600000Y-99250000D02*
X152400000Y-99250000D01*
X149600000Y-97250000D02*
X149600000Y-99250000D01*
X152400000Y-97250000D02*
X149600000Y-97250000D01*
%TO.C,JP3*%
X152400000Y-95500000D02*
X152400000Y-93500000D01*
X149600000Y-95500000D02*
X152400000Y-95500000D01*
X149600000Y-93500000D02*
X149600000Y-95500000D01*
X152400000Y-93500000D02*
X149600000Y-93500000D01*
%TO.C,JP2*%
X152400000Y-91750000D02*
X152400000Y-89750000D01*
X149600000Y-91750000D02*
X152400000Y-91750000D01*
X149600000Y-89750000D02*
X149600000Y-91750000D01*
X152400000Y-89750000D02*
X149600000Y-89750000D01*
%TO.C,JP5*%
X152400000Y-103000000D02*
X152400000Y-101000000D01*
X149600000Y-103000000D02*
X152400000Y-103000000D01*
X149600000Y-101000000D02*
X149600000Y-103000000D01*
X152400000Y-101000000D02*
X149600000Y-101000000D01*
%TO.C,JP1*%
X152400000Y-88000000D02*
X152400000Y-86000000D01*
X149600000Y-88000000D02*
X152400000Y-88000000D01*
X149600000Y-86000000D02*
X149600000Y-88000000D01*
X152400000Y-86000000D02*
X149600000Y-86000000D01*
%TO.C,J1*%
X146170000Y-73670000D02*
X146170000Y-75000000D01*
X147500000Y-73670000D02*
X146170000Y-73670000D01*
X148770000Y-73670000D02*
X148770000Y-76330000D01*
X148770000Y-76330000D02*
X151370000Y-76330000D01*
X148770000Y-73670000D02*
X151370000Y-73670000D01*
X151370000Y-73670000D02*
X151370000Y-76330000D01*
%TO.C,C2*%
X144840000Y-98397936D02*
X144840000Y-99602064D01*
X146660000Y-98397936D02*
X146660000Y-99602064D01*
%TO.C,C1*%
X151102064Y-78590000D02*
X149897936Y-78590000D01*
X151102064Y-80410000D02*
X149897936Y-80410000D01*
%TO.C,R4*%
D12*
X144382380Y-93333333D02*
X143906190Y-93000000D01*
X144382380Y-92761904D02*
X143382380Y-92761904D01*
X143382380Y-93142857D01*
X143430000Y-93238095D01*
X143477619Y-93285714D01*
X143572857Y-93333333D01*
X143715714Y-93333333D01*
X143810952Y-93285714D01*
X143858571Y-93238095D01*
X143906190Y-93142857D01*
X143906190Y-92761904D01*
X143715714Y-94190476D02*
X144382380Y-94190476D01*
X143334761Y-93952380D02*
X144049047Y-93714285D01*
X144049047Y-94333333D01*
%TO.C,R3*%
X144382380Y-87583333D02*
X143906190Y-87250000D01*
X144382380Y-87011904D02*
X143382380Y-87011904D01*
X143382380Y-87392857D01*
X143430000Y-87488095D01*
X143477619Y-87535714D01*
X143572857Y-87583333D01*
X143715714Y-87583333D01*
X143810952Y-87535714D01*
X143858571Y-87488095D01*
X143906190Y-87392857D01*
X143906190Y-87011904D01*
X143382380Y-87916666D02*
X143382380Y-88535714D01*
X143763333Y-88202380D01*
X143763333Y-88345238D01*
X143810952Y-88440476D01*
X143858571Y-88488095D01*
X143953809Y-88535714D01*
X144191904Y-88535714D01*
X144287142Y-88488095D01*
X144334761Y-88440476D01*
X144382380Y-88345238D01*
X144382380Y-88059523D01*
X144334761Y-87964285D01*
X144287142Y-87916666D01*
%TO.C,R2*%
X144382380Y-82083333D02*
X143906190Y-81750000D01*
X144382380Y-81511904D02*
X143382380Y-81511904D01*
X143382380Y-81892857D01*
X143430000Y-81988095D01*
X143477619Y-82035714D01*
X143572857Y-82083333D01*
X143715714Y-82083333D01*
X143810952Y-82035714D01*
X143858571Y-81988095D01*
X143906190Y-81892857D01*
X143906190Y-81511904D01*
X143477619Y-82464285D02*
X143430000Y-82511904D01*
X143382380Y-82607142D01*
X143382380Y-82845238D01*
X143430000Y-82940476D01*
X143477619Y-82988095D01*
X143572857Y-83035714D01*
X143668095Y-83035714D01*
X143810952Y-82988095D01*
X144382380Y-82416666D01*
X144382380Y-83035714D01*
%TO.C,R1*%
X150666666Y-81882380D02*
X151000000Y-81406190D01*
X151238095Y-81882380D02*
X151238095Y-80882380D01*
X150857142Y-80882380D01*
X150761904Y-80930000D01*
X150714285Y-80977619D01*
X150666666Y-81072857D01*
X150666666Y-81215714D01*
X150714285Y-81310952D01*
X150761904Y-81358571D01*
X150857142Y-81406190D01*
X151238095Y-81406190D01*
X149714285Y-81882380D02*
X150285714Y-81882380D01*
X150000000Y-81882380D02*
X150000000Y-80882380D01*
X150095238Y-81025238D01*
X150190476Y-81120476D01*
X150285714Y-81168095D01*
%TO.C,JP4*%
X151833333Y-95902380D02*
X151833333Y-96616666D01*
X151880952Y-96759523D01*
X151976190Y-96854761D01*
X152119047Y-96902380D01*
X152214285Y-96902380D01*
X151357142Y-96902380D02*
X151357142Y-95902380D01*
X150976190Y-95902380D01*
X150880952Y-95950000D01*
X150833333Y-95997619D01*
X150785714Y-96092857D01*
X150785714Y-96235714D01*
X150833333Y-96330952D01*
X150880952Y-96378571D01*
X150976190Y-96426190D01*
X151357142Y-96426190D01*
X149928571Y-96235714D02*
X149928571Y-96902380D01*
X150166666Y-95854761D02*
X150404761Y-96569047D01*
X149785714Y-96569047D01*
%TO.C,JP3*%
X151833333Y-92152380D02*
X151833333Y-92866666D01*
X151880952Y-93009523D01*
X151976190Y-93104761D01*
X152119047Y-93152380D01*
X152214285Y-93152380D01*
X151357142Y-93152380D02*
X151357142Y-92152380D01*
X150976190Y-92152380D01*
X150880952Y-92200000D01*
X150833333Y-92247619D01*
X150785714Y-92342857D01*
X150785714Y-92485714D01*
X150833333Y-92580952D01*
X150880952Y-92628571D01*
X150976190Y-92676190D01*
X151357142Y-92676190D01*
X150452380Y-92152380D02*
X149833333Y-92152380D01*
X150166666Y-92533333D01*
X150023809Y-92533333D01*
X149928571Y-92580952D01*
X149880952Y-92628571D01*
X149833333Y-92723809D01*
X149833333Y-92961904D01*
X149880952Y-93057142D01*
X149928571Y-93104761D01*
X150023809Y-93152380D01*
X150309523Y-93152380D01*
X150404761Y-93104761D01*
X150452380Y-93057142D01*
%TO.C,JP2*%
X151833333Y-88402380D02*
X151833333Y-89116666D01*
X151880952Y-89259523D01*
X151976190Y-89354761D01*
X152119047Y-89402380D01*
X152214285Y-89402380D01*
X151357142Y-89402380D02*
X151357142Y-88402380D01*
X150976190Y-88402380D01*
X150880952Y-88450000D01*
X150833333Y-88497619D01*
X150785714Y-88592857D01*
X150785714Y-88735714D01*
X150833333Y-88830952D01*
X150880952Y-88878571D01*
X150976190Y-88926190D01*
X151357142Y-88926190D01*
X150404761Y-88497619D02*
X150357142Y-88450000D01*
X150261904Y-88402380D01*
X150023809Y-88402380D01*
X149928571Y-88450000D01*
X149880952Y-88497619D01*
X149833333Y-88592857D01*
X149833333Y-88688095D01*
X149880952Y-88830952D01*
X150452380Y-89402380D01*
X149833333Y-89402380D01*
%TO.C,JP5*%
X151833333Y-99652380D02*
X151833333Y-100366666D01*
X151880952Y-100509523D01*
X151976190Y-100604761D01*
X152119047Y-100652380D01*
X152214285Y-100652380D01*
X151357142Y-100652380D02*
X151357142Y-99652380D01*
X150976190Y-99652380D01*
X150880952Y-99700000D01*
X150833333Y-99747619D01*
X150785714Y-99842857D01*
X150785714Y-99985714D01*
X150833333Y-100080952D01*
X150880952Y-100128571D01*
X150976190Y-100176190D01*
X151357142Y-100176190D01*
X149880952Y-99652380D02*
X150357142Y-99652380D01*
X150404761Y-100128571D01*
X150357142Y-100080952D01*
X150261904Y-100033333D01*
X150023809Y-100033333D01*
X149928571Y-100080952D01*
X149880952Y-100128571D01*
X149833333Y-100223809D01*
X149833333Y-100461904D01*
X149880952Y-100557142D01*
X149928571Y-100604761D01*
X150023809Y-100652380D01*
X150261904Y-100652380D01*
X150357142Y-100604761D01*
X150404761Y-100557142D01*
%TO.C,JP1*%
X151833333Y-84652380D02*
X151833333Y-85366666D01*
X151880952Y-85509523D01*
X151976190Y-85604761D01*
X152119047Y-85652380D01*
X152214285Y-85652380D01*
X151357142Y-85652380D02*
X151357142Y-84652380D01*
X150976190Y-84652380D01*
X150880952Y-84700000D01*
X150833333Y-84747619D01*
X150785714Y-84842857D01*
X150785714Y-84985714D01*
X150833333Y-85080952D01*
X150880952Y-85128571D01*
X150976190Y-85176190D01*
X151357142Y-85176190D01*
X149833333Y-85652380D02*
X150404761Y-85652380D01*
X150119047Y-85652380D02*
X150119047Y-84652380D01*
X150214285Y-84795238D01*
X150309523Y-84890476D01*
X150404761Y-84938095D01*
%TO.C,J1*%
X144622380Y-74666666D02*
X145336666Y-74666666D01*
X145479523Y-74619047D01*
X145574761Y-74523809D01*
X145622380Y-74380952D01*
X145622380Y-74285714D01*
X145622380Y-75666666D02*
X145622380Y-75095238D01*
X145622380Y-75380952D02*
X144622380Y-75380952D01*
X144765238Y-75285714D01*
X144860476Y-75190476D01*
X144908095Y-75095238D01*
%TO.C,C2*%
X144287142Y-98833333D02*
X144334761Y-98785714D01*
X144382380Y-98642857D01*
X144382380Y-98547619D01*
X144334761Y-98404761D01*
X144239523Y-98309523D01*
X144144285Y-98261904D01*
X143953809Y-98214285D01*
X143810952Y-98214285D01*
X143620476Y-98261904D01*
X143525238Y-98309523D01*
X143430000Y-98404761D01*
X143382380Y-98547619D01*
X143382380Y-98642857D01*
X143430000Y-98785714D01*
X143477619Y-98833333D01*
X143477619Y-99214285D02*
X143430000Y-99261904D01*
X143382380Y-99357142D01*
X143382380Y-99595238D01*
X143430000Y-99690476D01*
X143477619Y-99738095D01*
X143572857Y-99785714D01*
X143668095Y-99785714D01*
X143810952Y-99738095D01*
X144382380Y-99166666D01*
X144382380Y-99785714D01*
%TO.C,C1*%
X150666666Y-78037142D02*
X150714285Y-78084761D01*
X150857142Y-78132380D01*
X150952380Y-78132380D01*
X151095238Y-78084761D01*
X151190476Y-77989523D01*
X151238095Y-77894285D01*
X151285714Y-77703809D01*
X151285714Y-77560952D01*
X151238095Y-77370476D01*
X151190476Y-77275238D01*
X151095238Y-77180000D01*
X150952380Y-77132380D01*
X150857142Y-77132380D01*
X150714285Y-77180000D01*
X150666666Y-77227619D01*
X149714285Y-78132380D02*
X150285714Y-78132380D01*
X150000000Y-78132380D02*
X150000000Y-77132380D01*
X150095238Y-77275238D01*
X150190476Y-77370476D01*
X150285714Y-77418095D01*
%TD*%
M02*
