%TF.GenerationSoftware,KiCad,Pcbnew,(5.1.6)-1*%
%TF.CreationDate,2020-08-29T13:30:18-04:00*%
%TF.ProjectId,555-timer-rev1-0,3535352d-7469-46d6-9572-2d726576312d,rev?*%
%TF.SameCoordinates,Original*%
%TF.FileFunction,Soldermask,Top*%
%TF.FilePolarity,Negative*%
%FSLAX46Y46*%
G04 Gerber Fmt 4.6, Leading zero omitted, Abs format (unit mm)*
G04 Created by KiCad (PCBNEW (5.1.6)-1) date 2020-08-29 13:30:18*
%MOMM*%
%LPD*%
G01*
G04 APERTURE LIST*
%ADD10R,2.100000X1.100000*%
%ADD11R,1.800000X1.800000*%
%ADD12O,1.800000X1.800000*%
G04 APERTURE END LIST*
%TO.C,U1*%
G36*
G01*
X150200000Y-79020000D02*
X150200000Y-78670000D01*
G75*
G02*
X150375000Y-78495000I175000J0D01*
G01*
X152075000Y-78495000D01*
G75*
G02*
X152250000Y-78670000I0J-175000D01*
G01*
X152250000Y-79020000D01*
G75*
G02*
X152075000Y-79195000I-175000J0D01*
G01*
X150375000Y-79195000D01*
G75*
G02*
X150200000Y-79020000I0J175000D01*
G01*
G37*
G36*
G01*
X150200000Y-80290000D02*
X150200000Y-79940000D01*
G75*
G02*
X150375000Y-79765000I175000J0D01*
G01*
X152075000Y-79765000D01*
G75*
G02*
X152250000Y-79940000I0J-175000D01*
G01*
X152250000Y-80290000D01*
G75*
G02*
X152075000Y-80465000I-175000J0D01*
G01*
X150375000Y-80465000D01*
G75*
G02*
X150200000Y-80290000I0J175000D01*
G01*
G37*
G36*
G01*
X150200000Y-81560000D02*
X150200000Y-81210000D01*
G75*
G02*
X150375000Y-81035000I175000J0D01*
G01*
X152075000Y-81035000D01*
G75*
G02*
X152250000Y-81210000I0J-175000D01*
G01*
X152250000Y-81560000D01*
G75*
G02*
X152075000Y-81735000I-175000J0D01*
G01*
X150375000Y-81735000D01*
G75*
G02*
X150200000Y-81560000I0J175000D01*
G01*
G37*
G36*
G01*
X150200000Y-82830000D02*
X150200000Y-82480000D01*
G75*
G02*
X150375000Y-82305000I175000J0D01*
G01*
X152075000Y-82305000D01*
G75*
G02*
X152250000Y-82480000I0J-175000D01*
G01*
X152250000Y-82830000D01*
G75*
G02*
X152075000Y-83005000I-175000J0D01*
G01*
X150375000Y-83005000D01*
G75*
G02*
X150200000Y-82830000I0J175000D01*
G01*
G37*
G36*
G01*
X145250000Y-82830000D02*
X145250000Y-82480000D01*
G75*
G02*
X145425000Y-82305000I175000J0D01*
G01*
X147125000Y-82305000D01*
G75*
G02*
X147300000Y-82480000I0J-175000D01*
G01*
X147300000Y-82830000D01*
G75*
G02*
X147125000Y-83005000I-175000J0D01*
G01*
X145425000Y-83005000D01*
G75*
G02*
X145250000Y-82830000I0J175000D01*
G01*
G37*
G36*
G01*
X145250000Y-81560000D02*
X145250000Y-81210000D01*
G75*
G02*
X145425000Y-81035000I175000J0D01*
G01*
X147125000Y-81035000D01*
G75*
G02*
X147300000Y-81210000I0J-175000D01*
G01*
X147300000Y-81560000D01*
G75*
G02*
X147125000Y-81735000I-175000J0D01*
G01*
X145425000Y-81735000D01*
G75*
G02*
X145250000Y-81560000I0J175000D01*
G01*
G37*
G36*
G01*
X145250000Y-80290000D02*
X145250000Y-79940000D01*
G75*
G02*
X145425000Y-79765000I175000J0D01*
G01*
X147125000Y-79765000D01*
G75*
G02*
X147300000Y-79940000I0J-175000D01*
G01*
X147300000Y-80290000D01*
G75*
G02*
X147125000Y-80465000I-175000J0D01*
G01*
X145425000Y-80465000D01*
G75*
G02*
X145250000Y-80290000I0J175000D01*
G01*
G37*
G36*
G01*
X145250000Y-79020000D02*
X145250000Y-78670000D01*
G75*
G02*
X145425000Y-78495000I175000J0D01*
G01*
X147125000Y-78495000D01*
G75*
G02*
X147300000Y-78670000I0J-175000D01*
G01*
X147300000Y-79020000D01*
G75*
G02*
X147125000Y-79195000I-175000J0D01*
G01*
X145425000Y-79195000D01*
G75*
G02*
X145250000Y-79020000I0J175000D01*
G01*
G37*
%TD*%
D10*
%TO.C,SW2*%
X145900000Y-92400000D03*
X145900000Y-95600000D03*
X151600000Y-95600000D03*
X151600000Y-92400000D03*
%TD*%
%TO.C,SW1*%
X145900000Y-85400000D03*
X145900000Y-88600000D03*
X151600000Y-88600000D03*
X151600000Y-85400000D03*
%TD*%
%TO.C,R6*%
G36*
G01*
X152225000Y-105157456D02*
X152225000Y-103842544D01*
G75*
G02*
X152492544Y-103575000I267544J0D01*
G01*
X153482456Y-103575000D01*
G75*
G02*
X153750000Y-103842544I0J-267544D01*
G01*
X153750000Y-105157456D01*
G75*
G02*
X153482456Y-105425000I-267544J0D01*
G01*
X152492544Y-105425000D01*
G75*
G02*
X152225000Y-105157456I0J267544D01*
G01*
G37*
G36*
G01*
X149250000Y-105157456D02*
X149250000Y-103842544D01*
G75*
G02*
X149517544Y-103575000I267544J0D01*
G01*
X150507456Y-103575000D01*
G75*
G02*
X150775000Y-103842544I0J-267544D01*
G01*
X150775000Y-105157456D01*
G75*
G02*
X150507456Y-105425000I-267544J0D01*
G01*
X149517544Y-105425000D01*
G75*
G02*
X149250000Y-105157456I0J267544D01*
G01*
G37*
%TD*%
%TO.C,R5*%
G36*
G01*
X152237500Y-101407456D02*
X152237500Y-100092544D01*
G75*
G02*
X152505044Y-99825000I267544J0D01*
G01*
X153494956Y-99825000D01*
G75*
G02*
X153762500Y-100092544I0J-267544D01*
G01*
X153762500Y-101407456D01*
G75*
G02*
X153494956Y-101675000I-267544J0D01*
G01*
X152505044Y-101675000D01*
G75*
G02*
X152237500Y-101407456I0J267544D01*
G01*
G37*
G36*
G01*
X149262500Y-101407456D02*
X149262500Y-100092544D01*
G75*
G02*
X149530044Y-99825000I267544J0D01*
G01*
X150519956Y-99825000D01*
G75*
G02*
X150787500Y-100092544I0J-267544D01*
G01*
X150787500Y-101407456D01*
G75*
G02*
X150519956Y-101675000I-267544J0D01*
G01*
X149530044Y-101675000D01*
G75*
G02*
X149262500Y-101407456I0J267544D01*
G01*
G37*
%TD*%
D11*
%TO.C,J1*%
X147500000Y-75000000D03*
D12*
X150040000Y-75000000D03*
%TD*%
%TO.C,D2*%
G36*
G01*
X146575000Y-105109375D02*
X146575000Y-103890625D01*
G75*
G02*
X146840625Y-103625000I265625J0D01*
G01*
X148009375Y-103625000D01*
G75*
G02*
X148275000Y-103890625I0J-265625D01*
G01*
X148275000Y-105109375D01*
G75*
G02*
X148009375Y-105375000I-265625J0D01*
G01*
X146840625Y-105375000D01*
G75*
G02*
X146575000Y-105109375I0J265625D01*
G01*
G37*
G36*
G01*
X143725000Y-105109375D02*
X143725000Y-103890625D01*
G75*
G02*
X143990625Y-103625000I265625J0D01*
G01*
X145159375Y-103625000D01*
G75*
G02*
X145425000Y-103890625I0J-265625D01*
G01*
X145425000Y-105109375D01*
G75*
G02*
X145159375Y-105375000I-265625J0D01*
G01*
X143990625Y-105375000D01*
G75*
G02*
X143725000Y-105109375I0J265625D01*
G01*
G37*
%TD*%
%TO.C,D1*%
G36*
G01*
X146575000Y-101359375D02*
X146575000Y-100140625D01*
G75*
G02*
X146840625Y-99875000I265625J0D01*
G01*
X148009375Y-99875000D01*
G75*
G02*
X148275000Y-100140625I0J-265625D01*
G01*
X148275000Y-101359375D01*
G75*
G02*
X148009375Y-101625000I-265625J0D01*
G01*
X146840625Y-101625000D01*
G75*
G02*
X146575000Y-101359375I0J265625D01*
G01*
G37*
G36*
G01*
X143725000Y-101359375D02*
X143725000Y-100140625D01*
G75*
G02*
X143990625Y-99875000I265625J0D01*
G01*
X145159375Y-99875000D01*
G75*
G02*
X145425000Y-100140625I0J-265625D01*
G01*
X145425000Y-101359375D01*
G75*
G02*
X145159375Y-101625000I-265625J0D01*
G01*
X143990625Y-101625000D01*
G75*
G02*
X143725000Y-101359375I0J265625D01*
G01*
G37*
%TD*%
M02*
