%TF.GenerationSoftware,KiCad,Pcbnew,(5.1.6)-1*%
%TF.CreationDate,2020-08-29T13:30:18-04:00*%
%TF.ProjectId,555-timer-rev1-0,3535352d-7469-46d6-9572-2d726576312d,rev?*%
%TF.SameCoordinates,Original*%
%TF.FileFunction,Copper,L2,Bot*%
%TF.FilePolarity,Positive*%
%FSLAX46Y46*%
G04 Gerber Fmt 4.6, Leading zero omitted, Abs format (unit mm)*
G04 Created by KiCad (PCBNEW (5.1.6)-1) date 2020-08-29 13:30:18*
%MOMM*%
%LPD*%
G01*
G04 APERTURE LIST*
%TA.AperFunction,SMDPad,CuDef*%
%ADD10C,0.100000*%
%TD*%
%TA.AperFunction,ComponentPad*%
%ADD11R,1.700000X1.700000*%
%TD*%
%TA.AperFunction,ComponentPad*%
%ADD12O,1.700000X1.700000*%
%TD*%
%TA.AperFunction,ViaPad*%
%ADD13C,0.800000*%
%TD*%
%TA.AperFunction,Conductor*%
%ADD14C,0.250000*%
%TD*%
%TA.AperFunction,Conductor*%
%ADD15C,0.254000*%
%TD*%
G04 APERTURE END LIST*
%TO.P,R4,2*%
%TO.N,Net-(C2-Pad1)*%
%TA.AperFunction,SMDPad,CuDef*%
G36*
G01*
X145125000Y-94275000D02*
X146375000Y-94275000D01*
G75*
G02*
X146625000Y-94525000I0J-250000D01*
G01*
X146625000Y-95450000D01*
G75*
G02*
X146375000Y-95700000I-250000J0D01*
G01*
X145125000Y-95700000D01*
G75*
G02*
X144875000Y-95450000I0J250000D01*
G01*
X144875000Y-94525000D01*
G75*
G02*
X145125000Y-94275000I250000J0D01*
G01*
G37*
%TD.AperFunction*%
%TO.P,R4,1*%
%TO.N,Net-(JP2-Pad2)*%
%TA.AperFunction,SMDPad,CuDef*%
G36*
G01*
X145125000Y-91300000D02*
X146375000Y-91300000D01*
G75*
G02*
X146625000Y-91550000I0J-250000D01*
G01*
X146625000Y-92475000D01*
G75*
G02*
X146375000Y-92725000I-250000J0D01*
G01*
X145125000Y-92725000D01*
G75*
G02*
X144875000Y-92475000I0J250000D01*
G01*
X144875000Y-91550000D01*
G75*
G02*
X145125000Y-91300000I250000J0D01*
G01*
G37*
%TD.AperFunction*%
%TD*%
%TO.P,R3,2*%
%TO.N,Net-(JP2-Pad2)*%
%TA.AperFunction,SMDPad,CuDef*%
G36*
G01*
X145125000Y-88525000D02*
X146375000Y-88525000D01*
G75*
G02*
X146625000Y-88775000I0J-250000D01*
G01*
X146625000Y-89700000D01*
G75*
G02*
X146375000Y-89950000I-250000J0D01*
G01*
X145125000Y-89950000D01*
G75*
G02*
X144875000Y-89700000I0J250000D01*
G01*
X144875000Y-88775000D01*
G75*
G02*
X145125000Y-88525000I250000J0D01*
G01*
G37*
%TD.AperFunction*%
%TO.P,R3,1*%
%TO.N,+5V*%
%TA.AperFunction,SMDPad,CuDef*%
G36*
G01*
X145125000Y-85550000D02*
X146375000Y-85550000D01*
G75*
G02*
X146625000Y-85800000I0J-250000D01*
G01*
X146625000Y-86725000D01*
G75*
G02*
X146375000Y-86975000I-250000J0D01*
G01*
X145125000Y-86975000D01*
G75*
G02*
X144875000Y-86725000I0J250000D01*
G01*
X144875000Y-85800000D01*
G75*
G02*
X145125000Y-85550000I250000J0D01*
G01*
G37*
%TD.AperFunction*%
%TD*%
%TO.P,R2,2*%
%TO.N,Net-(R2-Pad2)*%
%TA.AperFunction,SMDPad,CuDef*%
G36*
G01*
X145125000Y-83025000D02*
X146375000Y-83025000D01*
G75*
G02*
X146625000Y-83275000I0J-250000D01*
G01*
X146625000Y-84200000D01*
G75*
G02*
X146375000Y-84450000I-250000J0D01*
G01*
X145125000Y-84450000D01*
G75*
G02*
X144875000Y-84200000I0J250000D01*
G01*
X144875000Y-83275000D01*
G75*
G02*
X145125000Y-83025000I250000J0D01*
G01*
G37*
%TD.AperFunction*%
%TO.P,R2,1*%
%TO.N,+5V*%
%TA.AperFunction,SMDPad,CuDef*%
G36*
G01*
X145125000Y-80050000D02*
X146375000Y-80050000D01*
G75*
G02*
X146625000Y-80300000I0J-250000D01*
G01*
X146625000Y-81225000D01*
G75*
G02*
X146375000Y-81475000I-250000J0D01*
G01*
X145125000Y-81475000D01*
G75*
G02*
X144875000Y-81225000I0J250000D01*
G01*
X144875000Y-80300000D01*
G75*
G02*
X145125000Y-80050000I250000J0D01*
G01*
G37*
%TD.AperFunction*%
%TD*%
%TO.P,R1,2*%
%TO.N,+5V*%
%TA.AperFunction,SMDPad,CuDef*%
G36*
G01*
X149725000Y-82625000D02*
X149725000Y-83875000D01*
G75*
G02*
X149475000Y-84125000I-250000J0D01*
G01*
X148550000Y-84125000D01*
G75*
G02*
X148300000Y-83875000I0J250000D01*
G01*
X148300000Y-82625000D01*
G75*
G02*
X148550000Y-82375000I250000J0D01*
G01*
X149475000Y-82375000D01*
G75*
G02*
X149725000Y-82625000I0J-250000D01*
G01*
G37*
%TD.AperFunction*%
%TO.P,R1,1*%
%TO.N,Net-(JP1-Pad1)*%
%TA.AperFunction,SMDPad,CuDef*%
G36*
G01*
X152700000Y-82625000D02*
X152700000Y-83875000D01*
G75*
G02*
X152450000Y-84125000I-250000J0D01*
G01*
X151525000Y-84125000D01*
G75*
G02*
X151275000Y-83875000I0J250000D01*
G01*
X151275000Y-82625000D01*
G75*
G02*
X151525000Y-82375000I250000J0D01*
G01*
X152450000Y-82375000D01*
G75*
G02*
X152700000Y-82625000I0J-250000D01*
G01*
G37*
%TD.AperFunction*%
%TD*%
%TA.AperFunction,SMDPad,CuDef*%
D10*
%TO.P,JP4,1*%
%TO.N,Net-(JP4-Pad1)*%
G36*
X150725000Y-98250000D02*
G01*
X151225000Y-97500000D01*
X152225000Y-97500000D01*
X152225000Y-99000000D01*
X151225000Y-99000000D01*
X150725000Y-98250000D01*
G37*
%TD.AperFunction*%
%TA.AperFunction,SMDPad,CuDef*%
%TO.P,JP4,2*%
%TO.N,Net-(C2-Pad1)*%
G36*
X149775000Y-97500000D02*
G01*
X150925000Y-97500000D01*
X150425000Y-98250000D01*
X150925000Y-99000000D01*
X149775000Y-99000000D01*
X149775000Y-97500000D01*
G37*
%TD.AperFunction*%
%TD*%
%TA.AperFunction,SMDPad,CuDef*%
%TO.P,JP3,1*%
%TO.N,Net-(JP2-Pad1)*%
G36*
X150725000Y-94500000D02*
G01*
X151225000Y-93750000D01*
X152225000Y-93750000D01*
X152225000Y-95250000D01*
X151225000Y-95250000D01*
X150725000Y-94500000D01*
G37*
%TD.AperFunction*%
%TA.AperFunction,SMDPad,CuDef*%
%TO.P,JP3,2*%
%TO.N,Net-(C2-Pad1)*%
G36*
X149775000Y-93750000D02*
G01*
X150925000Y-93750000D01*
X150425000Y-94500000D01*
X150925000Y-95250000D01*
X149775000Y-95250000D01*
X149775000Y-93750000D01*
G37*
%TD.AperFunction*%
%TD*%
%TA.AperFunction,SMDPad,CuDef*%
%TO.P,JP2,1*%
%TO.N,Net-(JP2-Pad1)*%
G36*
X150725000Y-90750000D02*
G01*
X151225000Y-90000000D01*
X152225000Y-90000000D01*
X152225000Y-91500000D01*
X151225000Y-91500000D01*
X150725000Y-90750000D01*
G37*
%TD.AperFunction*%
%TA.AperFunction,SMDPad,CuDef*%
%TO.P,JP2,2*%
%TO.N,Net-(JP2-Pad2)*%
G36*
X149775000Y-90000000D02*
G01*
X150925000Y-90000000D01*
X150425000Y-90750000D01*
X150925000Y-91500000D01*
X149775000Y-91500000D01*
X149775000Y-90000000D01*
G37*
%TD.AperFunction*%
%TD*%
%TA.AperFunction,SMDPad,CuDef*%
%TO.P,JP5,1*%
%TO.N,/TRIGGER*%
G36*
X150725000Y-102000000D02*
G01*
X151225000Y-101250000D01*
X152225000Y-101250000D01*
X152225000Y-102750000D01*
X151225000Y-102750000D01*
X150725000Y-102000000D01*
G37*
%TD.AperFunction*%
%TA.AperFunction,SMDPad,CuDef*%
%TO.P,JP5,2*%
%TO.N,Net-(C2-Pad1)*%
G36*
X149775000Y-101250000D02*
G01*
X150925000Y-101250000D01*
X150425000Y-102000000D01*
X150925000Y-102750000D01*
X149775000Y-102750000D01*
X149775000Y-101250000D01*
G37*
%TD.AperFunction*%
%TD*%
%TA.AperFunction,SMDPad,CuDef*%
%TO.P,JP1,1*%
%TO.N,Net-(JP1-Pad1)*%
G36*
X150725000Y-87000000D02*
G01*
X151225000Y-86250000D01*
X152225000Y-86250000D01*
X152225000Y-87750000D01*
X151225000Y-87750000D01*
X150725000Y-87000000D01*
G37*
%TD.AperFunction*%
%TA.AperFunction,SMDPad,CuDef*%
%TO.P,JP1,2*%
%TO.N,/TRIGGER*%
G36*
X149775000Y-86250000D02*
G01*
X150925000Y-86250000D01*
X150425000Y-87000000D01*
X150925000Y-87750000D01*
X149775000Y-87750000D01*
X149775000Y-86250000D01*
G37*
%TD.AperFunction*%
%TD*%
D11*
%TO.P,J1,1*%
%TO.N,+5V*%
X147500000Y-75000000D03*
D12*
%TO.P,J1,2*%
%TO.N,GND*%
X150040000Y-75000000D03*
%TD*%
%TO.P,C2,2*%
%TO.N,GND*%
%TA.AperFunction,SMDPad,CuDef*%
G36*
G01*
X145125000Y-99775000D02*
X146375000Y-99775000D01*
G75*
G02*
X146625000Y-100025000I0J-250000D01*
G01*
X146625000Y-100950000D01*
G75*
G02*
X146375000Y-101200000I-250000J0D01*
G01*
X145125000Y-101200000D01*
G75*
G02*
X144875000Y-100950000I0J250000D01*
G01*
X144875000Y-100025000D01*
G75*
G02*
X145125000Y-99775000I250000J0D01*
G01*
G37*
%TD.AperFunction*%
%TO.P,C2,1*%
%TO.N,Net-(C2-Pad1)*%
%TA.AperFunction,SMDPad,CuDef*%
G36*
G01*
X145125000Y-96800000D02*
X146375000Y-96800000D01*
G75*
G02*
X146625000Y-97050000I0J-250000D01*
G01*
X146625000Y-97975000D01*
G75*
G02*
X146375000Y-98225000I-250000J0D01*
G01*
X145125000Y-98225000D01*
G75*
G02*
X144875000Y-97975000I0J250000D01*
G01*
X144875000Y-97050000D01*
G75*
G02*
X145125000Y-96800000I250000J0D01*
G01*
G37*
%TD.AperFunction*%
%TD*%
%TO.P,C1,2*%
%TO.N,GND*%
%TA.AperFunction,SMDPad,CuDef*%
G36*
G01*
X149725000Y-78875000D02*
X149725000Y-80125000D01*
G75*
G02*
X149475000Y-80375000I-250000J0D01*
G01*
X148550000Y-80375000D01*
G75*
G02*
X148300000Y-80125000I0J250000D01*
G01*
X148300000Y-78875000D01*
G75*
G02*
X148550000Y-78625000I250000J0D01*
G01*
X149475000Y-78625000D01*
G75*
G02*
X149725000Y-78875000I0J-250000D01*
G01*
G37*
%TD.AperFunction*%
%TO.P,C1,1*%
%TO.N,Net-(C1-Pad1)*%
%TA.AperFunction,SMDPad,CuDef*%
G36*
G01*
X152700000Y-78875000D02*
X152700000Y-80125000D01*
G75*
G02*
X152450000Y-80375000I-250000J0D01*
G01*
X151525000Y-80375000D01*
G75*
G02*
X151275000Y-80125000I0J250000D01*
G01*
X151275000Y-78875000D01*
G75*
G02*
X151525000Y-78625000I250000J0D01*
G01*
X152450000Y-78625000D01*
G75*
G02*
X152700000Y-78875000I0J-250000D01*
G01*
G37*
%TD.AperFunction*%
%TD*%
D13*
%TO.N,GND*%
X143750000Y-97000000D03*
%TO.N,Net-(C1-Pad1)*%
X153000000Y-77500000D03*
%TO.N,/TRIGGER*%
X143750000Y-80000000D03*
%TO.N,+5V*%
X154500000Y-100750000D03*
X154000000Y-78750000D03*
%TO.N,Net-(JP1-Pad1)*%
X150500000Y-84000000D03*
%TO.N,Net-(R2-Pad2)*%
X143750000Y-84000000D03*
%TO.N,Net-(JP2-Pad1)*%
X153250000Y-81250000D03*
%TO.N,Net-(JP4-Pad1)*%
X154025000Y-82000000D03*
%TD*%
D14*
%TO.N,GND*%
X150000000Y-75000000D02*
X150050010Y-75050010D01*
X150040000Y-78472500D02*
X149012500Y-79500000D01*
X150040000Y-75000000D02*
X150040000Y-78472500D01*
X145750000Y-100487500D02*
X143750000Y-98487500D01*
X143750000Y-98487500D02*
X143750000Y-97000000D01*
%TO.N,Net-(C1-Pad1)*%
X152750000Y-78987500D02*
X152487500Y-79250000D01*
X153000000Y-78987500D02*
X152487500Y-79500000D01*
X153000000Y-77500000D02*
X153000000Y-78987500D01*
%TO.N,/TRIGGER*%
X151725000Y-102409636D02*
X151725000Y-102000000D01*
X151725000Y-102750000D02*
X151725000Y-102000000D01*
X151399990Y-103075010D02*
X151725000Y-102750000D01*
X146436820Y-103075010D02*
X151399990Y-103075010D01*
X143024999Y-99663189D02*
X146436820Y-103075010D01*
X143750000Y-80000000D02*
X143024999Y-80725001D01*
X143049998Y-87500000D02*
X143024999Y-87524999D01*
X150275000Y-87000000D02*
X149775000Y-87500000D01*
X149775000Y-87500000D02*
X143049998Y-87500000D01*
X143024999Y-80725001D02*
X143024999Y-87524999D01*
X143024999Y-87524999D02*
X143024999Y-99663189D01*
%TO.N,+5V*%
X149512500Y-83000000D02*
X149512500Y-83875000D01*
X146012500Y-86000000D02*
X145750000Y-86262500D01*
X145750000Y-80762500D02*
X145750000Y-81475000D01*
X147500000Y-79012500D02*
X145750000Y-80762500D01*
X147500000Y-75000000D02*
X147500000Y-79012500D01*
X146525000Y-80762500D02*
X149012500Y-83250000D01*
X145750000Y-80762500D02*
X146525000Y-80762500D01*
X146000000Y-86262500D02*
X149012500Y-83250000D01*
X145750000Y-86262500D02*
X146000000Y-86262500D01*
%TO.N,Net-(JP1-Pad1)*%
X151725000Y-84012500D02*
X152487500Y-83250000D01*
X151725000Y-87000000D02*
X151725000Y-84012500D01*
X151237500Y-84000000D02*
X151987500Y-83250000D01*
X150500000Y-84000000D02*
X151237500Y-84000000D01*
%TO.N,Net-(R2-Pad2)*%
X145512500Y-83737500D02*
X145750000Y-83737500D01*
X144012500Y-83737500D02*
X143750000Y-84000000D01*
X145750000Y-83737500D02*
X144012500Y-83737500D01*
%TO.N,Net-(C2-Pad1)*%
X145750000Y-94987500D02*
X145750000Y-97512500D01*
X150275000Y-102000000D02*
X150275000Y-98250000D01*
X150275000Y-98250000D02*
X150275000Y-94500000D01*
X146012500Y-97250000D02*
X145750000Y-97512500D01*
X146237500Y-94500000D02*
X145750000Y-94987500D01*
X150275000Y-94500000D02*
X146237500Y-94500000D01*
%TO.N,Net-(JP2-Pad1)*%
X151725000Y-90750000D02*
X151725000Y-94500000D01*
X153250000Y-89225000D02*
X151725000Y-90750000D01*
X153250000Y-81250000D02*
X153250000Y-89225000D01*
%TO.N,Net-(JP2-Pad2)*%
X145750000Y-89237500D02*
X145750000Y-92012500D01*
X147262500Y-90750000D02*
X145750000Y-89237500D01*
X150275000Y-90750000D02*
X147262500Y-90750000D01*
%TO.N,Net-(JP4-Pad1)*%
X154025000Y-95950000D02*
X151725000Y-98250000D01*
X154025000Y-82000000D02*
X154025000Y-95950000D01*
%TD*%
D15*
%TO.N,+5V*%
G36*
X155065001Y-103623000D02*
G01*
X151930256Y-103623000D01*
X151939991Y-103615011D01*
X151963794Y-103586007D01*
X152161729Y-103388072D01*
X152225000Y-103388072D01*
X152349482Y-103375812D01*
X152469180Y-103339502D01*
X152579494Y-103280537D01*
X152676185Y-103201185D01*
X152755537Y-103104494D01*
X152814502Y-102994180D01*
X152850812Y-102874482D01*
X152863072Y-102750000D01*
X152863072Y-101250000D01*
X152850812Y-101125518D01*
X152814502Y-101005820D01*
X152755537Y-100895506D01*
X152676185Y-100798815D01*
X152579494Y-100719463D01*
X152469180Y-100660498D01*
X152349482Y-100624188D01*
X152225000Y-100611928D01*
X151225000Y-100611928D01*
X151099864Y-100624319D01*
X151074936Y-100631909D01*
X151049482Y-100624188D01*
X151035000Y-100622762D01*
X151035000Y-99627296D01*
X151048827Y-99625941D01*
X151074935Y-99618051D01*
X151100518Y-99625812D01*
X151225000Y-99638072D01*
X152225000Y-99638072D01*
X152349482Y-99625812D01*
X152469180Y-99589502D01*
X152579494Y-99530537D01*
X152676185Y-99451185D01*
X152755537Y-99354494D01*
X152814502Y-99244180D01*
X152850812Y-99124482D01*
X152863072Y-99000000D01*
X152863072Y-98186729D01*
X154536003Y-96513799D01*
X154565001Y-96490001D01*
X154659974Y-96374276D01*
X154730546Y-96242247D01*
X154774003Y-96098986D01*
X154785000Y-95987333D01*
X154785000Y-95987324D01*
X154788676Y-95950001D01*
X154785000Y-95912678D01*
X154785000Y-82703711D01*
X154828937Y-82659774D01*
X154942205Y-82490256D01*
X155020226Y-82301898D01*
X155060000Y-82101939D01*
X155060000Y-81898061D01*
X155020226Y-81698102D01*
X154942205Y-81509744D01*
X154828937Y-81340226D01*
X154684774Y-81196063D01*
X154515256Y-81082795D01*
X154326898Y-81004774D01*
X154253599Y-80990194D01*
X154245226Y-80948102D01*
X154167205Y-80759744D01*
X154053937Y-80590226D01*
X153909774Y-80446063D01*
X153740256Y-80332795D01*
X153551898Y-80254774D01*
X153351939Y-80215000D01*
X153329208Y-80215000D01*
X153338072Y-80125000D01*
X153338072Y-79724230D01*
X153511007Y-79551295D01*
X153540001Y-79527501D01*
X153563795Y-79498508D01*
X153563799Y-79498504D01*
X153634973Y-79411777D01*
X153659962Y-79365027D01*
X153705546Y-79279747D01*
X153749003Y-79136486D01*
X153760000Y-79024833D01*
X153760000Y-79024824D01*
X153763676Y-78987501D01*
X153760000Y-78950178D01*
X153760000Y-78203711D01*
X153803937Y-78159774D01*
X153917205Y-77990256D01*
X153995226Y-77801898D01*
X154035000Y-77601939D01*
X154035000Y-77398061D01*
X153995226Y-77198102D01*
X153917205Y-77009744D01*
X153803937Y-76840226D01*
X153659774Y-76696063D01*
X153490256Y-76582795D01*
X153301898Y-76504774D01*
X153101939Y-76465000D01*
X152898061Y-76465000D01*
X152698102Y-76504774D01*
X152509744Y-76582795D01*
X152340226Y-76696063D01*
X152196063Y-76840226D01*
X152082795Y-77009744D01*
X152004774Y-77198102D01*
X151965000Y-77398061D01*
X151965000Y-77601939D01*
X152004774Y-77801898D01*
X152081416Y-77986928D01*
X151525000Y-77986928D01*
X151351746Y-78003992D01*
X151185150Y-78054528D01*
X151031614Y-78136595D01*
X150897038Y-78247038D01*
X150800000Y-78365280D01*
X150800000Y-76278178D01*
X150986632Y-76153475D01*
X151193475Y-75946632D01*
X151355990Y-75703411D01*
X151467932Y-75433158D01*
X151525000Y-75146260D01*
X151525000Y-74853740D01*
X151467932Y-74566842D01*
X151355990Y-74296589D01*
X151193475Y-74053368D01*
X150986632Y-73846525D01*
X150743411Y-73684010D01*
X150473158Y-73572068D01*
X150186260Y-73515000D01*
X149893740Y-73515000D01*
X149606842Y-73572068D01*
X149336589Y-73684010D01*
X149093368Y-73846525D01*
X148961513Y-73978380D01*
X148939502Y-73905820D01*
X148880537Y-73795506D01*
X148801185Y-73698815D01*
X148704494Y-73619463D01*
X148594180Y-73560498D01*
X148474482Y-73524188D01*
X148350000Y-73511928D01*
X147785750Y-73515000D01*
X147627000Y-73673750D01*
X147627000Y-74873000D01*
X147647000Y-74873000D01*
X147647000Y-75127000D01*
X147627000Y-75127000D01*
X147627000Y-76326250D01*
X147785750Y-76485000D01*
X148350000Y-76488072D01*
X148474482Y-76475812D01*
X148594180Y-76439502D01*
X148704494Y-76380537D01*
X148801185Y-76301185D01*
X148880537Y-76204494D01*
X148939502Y-76094180D01*
X148961513Y-76021620D01*
X149093368Y-76153475D01*
X149280000Y-76278179D01*
X149280001Y-77986928D01*
X148550000Y-77986928D01*
X148376746Y-78003992D01*
X148210150Y-78054528D01*
X148056614Y-78136595D01*
X147922038Y-78247038D01*
X147811595Y-78381614D01*
X147729528Y-78535150D01*
X147678992Y-78701746D01*
X147661928Y-78875000D01*
X147661928Y-80125000D01*
X147678992Y-80298254D01*
X147729528Y-80464850D01*
X147811595Y-80618386D01*
X147922038Y-80752962D01*
X148056614Y-80863405D01*
X148210150Y-80945472D01*
X148376746Y-80996008D01*
X148550000Y-81013072D01*
X149475000Y-81013072D01*
X149648254Y-80996008D01*
X149814850Y-80945472D01*
X149968386Y-80863405D01*
X150102962Y-80752962D01*
X150213405Y-80618386D01*
X150295472Y-80464850D01*
X150346008Y-80298254D01*
X150363072Y-80125000D01*
X150363072Y-79224231D01*
X150551008Y-79036295D01*
X150580001Y-79012501D01*
X150603795Y-78983508D01*
X150603799Y-78983504D01*
X150636928Y-78943136D01*
X150636928Y-80125000D01*
X150653992Y-80298254D01*
X150704528Y-80464850D01*
X150786595Y-80618386D01*
X150897038Y-80752962D01*
X151031614Y-80863405D01*
X151185150Y-80945472D01*
X151351746Y-80996008D01*
X151525000Y-81013072D01*
X152241851Y-81013072D01*
X152215000Y-81148061D01*
X152215000Y-81351939D01*
X152254774Y-81551898D01*
X152331416Y-81736928D01*
X151525000Y-81736928D01*
X151351746Y-81753992D01*
X151185150Y-81804528D01*
X151031614Y-81886595D01*
X150897038Y-81997038D01*
X150786595Y-82131614D01*
X150704528Y-82285150D01*
X150653992Y-82451746D01*
X150636928Y-82625000D01*
X150636928Y-82971960D01*
X150601939Y-82965000D01*
X150398061Y-82965000D01*
X150349613Y-82974637D01*
X150360000Y-82964250D01*
X150363072Y-82375000D01*
X150350812Y-82250518D01*
X150314502Y-82130820D01*
X150255537Y-82020506D01*
X150176185Y-81923815D01*
X150079494Y-81844463D01*
X149969180Y-81785498D01*
X149849482Y-81749188D01*
X149725000Y-81736928D01*
X149298250Y-81740000D01*
X149139500Y-81898750D01*
X149139500Y-83123000D01*
X149159500Y-83123000D01*
X149159500Y-83377000D01*
X149139500Y-83377000D01*
X149139500Y-84601250D01*
X149298250Y-84760000D01*
X149725000Y-84763072D01*
X149792694Y-84756405D01*
X149840226Y-84803937D01*
X150009744Y-84917205D01*
X150198102Y-84995226D01*
X150398061Y-85035000D01*
X150601939Y-85035000D01*
X150801898Y-84995226D01*
X150965001Y-84927666D01*
X150965000Y-85615868D01*
X150925000Y-85611928D01*
X149775000Y-85611928D01*
X149650518Y-85624188D01*
X149530820Y-85660498D01*
X149420506Y-85719463D01*
X149323815Y-85798815D01*
X149244463Y-85895506D01*
X149185498Y-86005820D01*
X149149188Y-86125518D01*
X149136928Y-86250000D01*
X149136928Y-86740000D01*
X147261380Y-86740000D01*
X147260000Y-86548250D01*
X147101250Y-86389500D01*
X145877000Y-86389500D01*
X145877000Y-86409500D01*
X145623000Y-86409500D01*
X145623000Y-86389500D01*
X144398750Y-86389500D01*
X144240000Y-86548250D01*
X144238620Y-86740000D01*
X143784999Y-86740000D01*
X143784999Y-85035000D01*
X143851939Y-85035000D01*
X144051898Y-84995226D01*
X144240256Y-84917205D01*
X144409774Y-84803937D01*
X144446874Y-84766837D01*
X144497038Y-84827962D01*
X144631614Y-84938405D01*
X144657695Y-84952346D01*
X144630820Y-84960498D01*
X144520506Y-85019463D01*
X144423815Y-85098815D01*
X144344463Y-85195506D01*
X144285498Y-85305820D01*
X144249188Y-85425518D01*
X144236928Y-85550000D01*
X144240000Y-85976750D01*
X144398750Y-86135500D01*
X145623000Y-86135500D01*
X145623000Y-86115500D01*
X145877000Y-86115500D01*
X145877000Y-86135500D01*
X147101250Y-86135500D01*
X147260000Y-85976750D01*
X147263072Y-85550000D01*
X147250812Y-85425518D01*
X147214502Y-85305820D01*
X147155537Y-85195506D01*
X147076185Y-85098815D01*
X146979494Y-85019463D01*
X146869180Y-84960498D01*
X146842305Y-84952346D01*
X146868386Y-84938405D01*
X147002962Y-84827962D01*
X147113405Y-84693386D01*
X147195472Y-84539850D01*
X147246008Y-84373254D01*
X147263072Y-84200000D01*
X147263072Y-84125000D01*
X147661928Y-84125000D01*
X147674188Y-84249482D01*
X147710498Y-84369180D01*
X147769463Y-84479494D01*
X147848815Y-84576185D01*
X147945506Y-84655537D01*
X148055820Y-84714502D01*
X148175518Y-84750812D01*
X148300000Y-84763072D01*
X148726750Y-84760000D01*
X148885500Y-84601250D01*
X148885500Y-83377000D01*
X147823750Y-83377000D01*
X147665000Y-83535750D01*
X147661928Y-84125000D01*
X147263072Y-84125000D01*
X147263072Y-83275000D01*
X147246008Y-83101746D01*
X147195472Y-82935150D01*
X147113405Y-82781614D01*
X147002962Y-82647038D01*
X146868386Y-82536595D01*
X146714850Y-82454528D01*
X146548254Y-82403992D01*
X146375000Y-82386928D01*
X145125000Y-82386928D01*
X144951746Y-82403992D01*
X144785150Y-82454528D01*
X144631614Y-82536595D01*
X144497038Y-82647038D01*
X144386595Y-82781614D01*
X144304528Y-82935150D01*
X144291681Y-82977500D01*
X144049822Y-82977500D01*
X144012499Y-82973824D01*
X143975176Y-82977500D01*
X143975167Y-82977500D01*
X143934780Y-82981478D01*
X143851939Y-82965000D01*
X143784999Y-82965000D01*
X143784999Y-82375000D01*
X147661928Y-82375000D01*
X147665000Y-82964250D01*
X147823750Y-83123000D01*
X148885500Y-83123000D01*
X148885500Y-81898750D01*
X148726750Y-81740000D01*
X148300000Y-81736928D01*
X148175518Y-81749188D01*
X148055820Y-81785498D01*
X147945506Y-81844463D01*
X147848815Y-81923815D01*
X147769463Y-82020506D01*
X147710498Y-82130820D01*
X147674188Y-82250518D01*
X147661928Y-82375000D01*
X143784999Y-82375000D01*
X143784999Y-81039802D01*
X143789801Y-81035000D01*
X143851939Y-81035000D01*
X144051898Y-80995226D01*
X144240256Y-80917205D01*
X144281717Y-80889502D01*
X144398748Y-80889502D01*
X144240000Y-81048250D01*
X144236928Y-81475000D01*
X144249188Y-81599482D01*
X144285498Y-81719180D01*
X144344463Y-81829494D01*
X144423815Y-81926185D01*
X144520506Y-82005537D01*
X144630820Y-82064502D01*
X144750518Y-82100812D01*
X144875000Y-82113072D01*
X145464250Y-82110000D01*
X145623000Y-81951250D01*
X145623000Y-80889500D01*
X145877000Y-80889500D01*
X145877000Y-81951250D01*
X146035750Y-82110000D01*
X146625000Y-82113072D01*
X146749482Y-82100812D01*
X146869180Y-82064502D01*
X146979494Y-82005537D01*
X147076185Y-81926185D01*
X147155537Y-81829494D01*
X147214502Y-81719180D01*
X147250812Y-81599482D01*
X147263072Y-81475000D01*
X147260000Y-81048250D01*
X147101250Y-80889500D01*
X145877000Y-80889500D01*
X145623000Y-80889500D01*
X145603000Y-80889500D01*
X145603000Y-80635500D01*
X145623000Y-80635500D01*
X145623000Y-79573750D01*
X145877000Y-79573750D01*
X145877000Y-80635500D01*
X147101250Y-80635500D01*
X147260000Y-80476750D01*
X147263072Y-80050000D01*
X147250812Y-79925518D01*
X147214502Y-79805820D01*
X147155537Y-79695506D01*
X147076185Y-79598815D01*
X146979494Y-79519463D01*
X146869180Y-79460498D01*
X146749482Y-79424188D01*
X146625000Y-79411928D01*
X146035750Y-79415000D01*
X145877000Y-79573750D01*
X145623000Y-79573750D01*
X145464250Y-79415000D01*
X144875000Y-79411928D01*
X144750518Y-79424188D01*
X144633713Y-79459620D01*
X144553937Y-79340226D01*
X144409774Y-79196063D01*
X144240256Y-79082795D01*
X144051898Y-79004774D01*
X143851939Y-78965000D01*
X143648061Y-78965000D01*
X143448102Y-79004774D01*
X143259744Y-79082795D01*
X143090226Y-79196063D01*
X142946063Y-79340226D01*
X142832795Y-79509744D01*
X142754774Y-79698102D01*
X142715000Y-79898061D01*
X142715000Y-79960199D01*
X142514001Y-80161198D01*
X142484998Y-80185000D01*
X142460378Y-80215000D01*
X142435000Y-80245923D01*
X142435000Y-75850000D01*
X146011928Y-75850000D01*
X146024188Y-75974482D01*
X146060498Y-76094180D01*
X146119463Y-76204494D01*
X146198815Y-76301185D01*
X146295506Y-76380537D01*
X146405820Y-76439502D01*
X146525518Y-76475812D01*
X146650000Y-76488072D01*
X147214250Y-76485000D01*
X147373000Y-76326250D01*
X147373000Y-75127000D01*
X146173750Y-75127000D01*
X146015000Y-75285750D01*
X146011928Y-75850000D01*
X142435000Y-75850000D01*
X142435000Y-74150000D01*
X146011928Y-74150000D01*
X146015000Y-74714250D01*
X146173750Y-74873000D01*
X147373000Y-74873000D01*
X147373000Y-73673750D01*
X147214250Y-73515000D01*
X146650000Y-73511928D01*
X146525518Y-73524188D01*
X146405820Y-73560498D01*
X146295506Y-73619463D01*
X146198815Y-73698815D01*
X146119463Y-73795506D01*
X146060498Y-73905820D01*
X146024188Y-74025518D01*
X146011928Y-74150000D01*
X142435000Y-74150000D01*
X142435000Y-72935000D01*
X155065000Y-72935000D01*
X155065001Y-103623000D01*
G37*
X155065001Y-103623000D02*
X151930256Y-103623000D01*
X151939991Y-103615011D01*
X151963794Y-103586007D01*
X152161729Y-103388072D01*
X152225000Y-103388072D01*
X152349482Y-103375812D01*
X152469180Y-103339502D01*
X152579494Y-103280537D01*
X152676185Y-103201185D01*
X152755537Y-103104494D01*
X152814502Y-102994180D01*
X152850812Y-102874482D01*
X152863072Y-102750000D01*
X152863072Y-101250000D01*
X152850812Y-101125518D01*
X152814502Y-101005820D01*
X152755537Y-100895506D01*
X152676185Y-100798815D01*
X152579494Y-100719463D01*
X152469180Y-100660498D01*
X152349482Y-100624188D01*
X152225000Y-100611928D01*
X151225000Y-100611928D01*
X151099864Y-100624319D01*
X151074936Y-100631909D01*
X151049482Y-100624188D01*
X151035000Y-100622762D01*
X151035000Y-99627296D01*
X151048827Y-99625941D01*
X151074935Y-99618051D01*
X151100518Y-99625812D01*
X151225000Y-99638072D01*
X152225000Y-99638072D01*
X152349482Y-99625812D01*
X152469180Y-99589502D01*
X152579494Y-99530537D01*
X152676185Y-99451185D01*
X152755537Y-99354494D01*
X152814502Y-99244180D01*
X152850812Y-99124482D01*
X152863072Y-99000000D01*
X152863072Y-98186729D01*
X154536003Y-96513799D01*
X154565001Y-96490001D01*
X154659974Y-96374276D01*
X154730546Y-96242247D01*
X154774003Y-96098986D01*
X154785000Y-95987333D01*
X154785000Y-95987324D01*
X154788676Y-95950001D01*
X154785000Y-95912678D01*
X154785000Y-82703711D01*
X154828937Y-82659774D01*
X154942205Y-82490256D01*
X155020226Y-82301898D01*
X155060000Y-82101939D01*
X155060000Y-81898061D01*
X155020226Y-81698102D01*
X154942205Y-81509744D01*
X154828937Y-81340226D01*
X154684774Y-81196063D01*
X154515256Y-81082795D01*
X154326898Y-81004774D01*
X154253599Y-80990194D01*
X154245226Y-80948102D01*
X154167205Y-80759744D01*
X154053937Y-80590226D01*
X153909774Y-80446063D01*
X153740256Y-80332795D01*
X153551898Y-80254774D01*
X153351939Y-80215000D01*
X153329208Y-80215000D01*
X153338072Y-80125000D01*
X153338072Y-79724230D01*
X153511007Y-79551295D01*
X153540001Y-79527501D01*
X153563795Y-79498508D01*
X153563799Y-79498504D01*
X153634973Y-79411777D01*
X153659962Y-79365027D01*
X153705546Y-79279747D01*
X153749003Y-79136486D01*
X153760000Y-79024833D01*
X153760000Y-79024824D01*
X153763676Y-78987501D01*
X153760000Y-78950178D01*
X153760000Y-78203711D01*
X153803937Y-78159774D01*
X153917205Y-77990256D01*
X153995226Y-77801898D01*
X154035000Y-77601939D01*
X154035000Y-77398061D01*
X153995226Y-77198102D01*
X153917205Y-77009744D01*
X153803937Y-76840226D01*
X153659774Y-76696063D01*
X153490256Y-76582795D01*
X153301898Y-76504774D01*
X153101939Y-76465000D01*
X152898061Y-76465000D01*
X152698102Y-76504774D01*
X152509744Y-76582795D01*
X152340226Y-76696063D01*
X152196063Y-76840226D01*
X152082795Y-77009744D01*
X152004774Y-77198102D01*
X151965000Y-77398061D01*
X151965000Y-77601939D01*
X152004774Y-77801898D01*
X152081416Y-77986928D01*
X151525000Y-77986928D01*
X151351746Y-78003992D01*
X151185150Y-78054528D01*
X151031614Y-78136595D01*
X150897038Y-78247038D01*
X150800000Y-78365280D01*
X150800000Y-76278178D01*
X150986632Y-76153475D01*
X151193475Y-75946632D01*
X151355990Y-75703411D01*
X151467932Y-75433158D01*
X151525000Y-75146260D01*
X151525000Y-74853740D01*
X151467932Y-74566842D01*
X151355990Y-74296589D01*
X151193475Y-74053368D01*
X150986632Y-73846525D01*
X150743411Y-73684010D01*
X150473158Y-73572068D01*
X150186260Y-73515000D01*
X149893740Y-73515000D01*
X149606842Y-73572068D01*
X149336589Y-73684010D01*
X149093368Y-73846525D01*
X148961513Y-73978380D01*
X148939502Y-73905820D01*
X148880537Y-73795506D01*
X148801185Y-73698815D01*
X148704494Y-73619463D01*
X148594180Y-73560498D01*
X148474482Y-73524188D01*
X148350000Y-73511928D01*
X147785750Y-73515000D01*
X147627000Y-73673750D01*
X147627000Y-74873000D01*
X147647000Y-74873000D01*
X147647000Y-75127000D01*
X147627000Y-75127000D01*
X147627000Y-76326250D01*
X147785750Y-76485000D01*
X148350000Y-76488072D01*
X148474482Y-76475812D01*
X148594180Y-76439502D01*
X148704494Y-76380537D01*
X148801185Y-76301185D01*
X148880537Y-76204494D01*
X148939502Y-76094180D01*
X148961513Y-76021620D01*
X149093368Y-76153475D01*
X149280000Y-76278179D01*
X149280001Y-77986928D01*
X148550000Y-77986928D01*
X148376746Y-78003992D01*
X148210150Y-78054528D01*
X148056614Y-78136595D01*
X147922038Y-78247038D01*
X147811595Y-78381614D01*
X147729528Y-78535150D01*
X147678992Y-78701746D01*
X147661928Y-78875000D01*
X147661928Y-80125000D01*
X147678992Y-80298254D01*
X147729528Y-80464850D01*
X147811595Y-80618386D01*
X147922038Y-80752962D01*
X148056614Y-80863405D01*
X148210150Y-80945472D01*
X148376746Y-80996008D01*
X148550000Y-81013072D01*
X149475000Y-81013072D01*
X149648254Y-80996008D01*
X149814850Y-80945472D01*
X149968386Y-80863405D01*
X150102962Y-80752962D01*
X150213405Y-80618386D01*
X150295472Y-80464850D01*
X150346008Y-80298254D01*
X150363072Y-80125000D01*
X150363072Y-79224231D01*
X150551008Y-79036295D01*
X150580001Y-79012501D01*
X150603795Y-78983508D01*
X150603799Y-78983504D01*
X150636928Y-78943136D01*
X150636928Y-80125000D01*
X150653992Y-80298254D01*
X150704528Y-80464850D01*
X150786595Y-80618386D01*
X150897038Y-80752962D01*
X151031614Y-80863405D01*
X151185150Y-80945472D01*
X151351746Y-80996008D01*
X151525000Y-81013072D01*
X152241851Y-81013072D01*
X152215000Y-81148061D01*
X152215000Y-81351939D01*
X152254774Y-81551898D01*
X152331416Y-81736928D01*
X151525000Y-81736928D01*
X151351746Y-81753992D01*
X151185150Y-81804528D01*
X151031614Y-81886595D01*
X150897038Y-81997038D01*
X150786595Y-82131614D01*
X150704528Y-82285150D01*
X150653992Y-82451746D01*
X150636928Y-82625000D01*
X150636928Y-82971960D01*
X150601939Y-82965000D01*
X150398061Y-82965000D01*
X150349613Y-82974637D01*
X150360000Y-82964250D01*
X150363072Y-82375000D01*
X150350812Y-82250518D01*
X150314502Y-82130820D01*
X150255537Y-82020506D01*
X150176185Y-81923815D01*
X150079494Y-81844463D01*
X149969180Y-81785498D01*
X149849482Y-81749188D01*
X149725000Y-81736928D01*
X149298250Y-81740000D01*
X149139500Y-81898750D01*
X149139500Y-83123000D01*
X149159500Y-83123000D01*
X149159500Y-83377000D01*
X149139500Y-83377000D01*
X149139500Y-84601250D01*
X149298250Y-84760000D01*
X149725000Y-84763072D01*
X149792694Y-84756405D01*
X149840226Y-84803937D01*
X150009744Y-84917205D01*
X150198102Y-84995226D01*
X150398061Y-85035000D01*
X150601939Y-85035000D01*
X150801898Y-84995226D01*
X150965001Y-84927666D01*
X150965000Y-85615868D01*
X150925000Y-85611928D01*
X149775000Y-85611928D01*
X149650518Y-85624188D01*
X149530820Y-85660498D01*
X149420506Y-85719463D01*
X149323815Y-85798815D01*
X149244463Y-85895506D01*
X149185498Y-86005820D01*
X149149188Y-86125518D01*
X149136928Y-86250000D01*
X149136928Y-86740000D01*
X147261380Y-86740000D01*
X147260000Y-86548250D01*
X147101250Y-86389500D01*
X145877000Y-86389500D01*
X145877000Y-86409500D01*
X145623000Y-86409500D01*
X145623000Y-86389500D01*
X144398750Y-86389500D01*
X144240000Y-86548250D01*
X144238620Y-86740000D01*
X143784999Y-86740000D01*
X143784999Y-85035000D01*
X143851939Y-85035000D01*
X144051898Y-84995226D01*
X144240256Y-84917205D01*
X144409774Y-84803937D01*
X144446874Y-84766837D01*
X144497038Y-84827962D01*
X144631614Y-84938405D01*
X144657695Y-84952346D01*
X144630820Y-84960498D01*
X144520506Y-85019463D01*
X144423815Y-85098815D01*
X144344463Y-85195506D01*
X144285498Y-85305820D01*
X144249188Y-85425518D01*
X144236928Y-85550000D01*
X144240000Y-85976750D01*
X144398750Y-86135500D01*
X145623000Y-86135500D01*
X145623000Y-86115500D01*
X145877000Y-86115500D01*
X145877000Y-86135500D01*
X147101250Y-86135500D01*
X147260000Y-85976750D01*
X147263072Y-85550000D01*
X147250812Y-85425518D01*
X147214502Y-85305820D01*
X147155537Y-85195506D01*
X147076185Y-85098815D01*
X146979494Y-85019463D01*
X146869180Y-84960498D01*
X146842305Y-84952346D01*
X146868386Y-84938405D01*
X147002962Y-84827962D01*
X147113405Y-84693386D01*
X147195472Y-84539850D01*
X147246008Y-84373254D01*
X147263072Y-84200000D01*
X147263072Y-84125000D01*
X147661928Y-84125000D01*
X147674188Y-84249482D01*
X147710498Y-84369180D01*
X147769463Y-84479494D01*
X147848815Y-84576185D01*
X147945506Y-84655537D01*
X148055820Y-84714502D01*
X148175518Y-84750812D01*
X148300000Y-84763072D01*
X148726750Y-84760000D01*
X148885500Y-84601250D01*
X148885500Y-83377000D01*
X147823750Y-83377000D01*
X147665000Y-83535750D01*
X147661928Y-84125000D01*
X147263072Y-84125000D01*
X147263072Y-83275000D01*
X147246008Y-83101746D01*
X147195472Y-82935150D01*
X147113405Y-82781614D01*
X147002962Y-82647038D01*
X146868386Y-82536595D01*
X146714850Y-82454528D01*
X146548254Y-82403992D01*
X146375000Y-82386928D01*
X145125000Y-82386928D01*
X144951746Y-82403992D01*
X144785150Y-82454528D01*
X144631614Y-82536595D01*
X144497038Y-82647038D01*
X144386595Y-82781614D01*
X144304528Y-82935150D01*
X144291681Y-82977500D01*
X144049822Y-82977500D01*
X144012499Y-82973824D01*
X143975176Y-82977500D01*
X143975167Y-82977500D01*
X143934780Y-82981478D01*
X143851939Y-82965000D01*
X143784999Y-82965000D01*
X143784999Y-82375000D01*
X147661928Y-82375000D01*
X147665000Y-82964250D01*
X147823750Y-83123000D01*
X148885500Y-83123000D01*
X148885500Y-81898750D01*
X148726750Y-81740000D01*
X148300000Y-81736928D01*
X148175518Y-81749188D01*
X148055820Y-81785498D01*
X147945506Y-81844463D01*
X147848815Y-81923815D01*
X147769463Y-82020506D01*
X147710498Y-82130820D01*
X147674188Y-82250518D01*
X147661928Y-82375000D01*
X143784999Y-82375000D01*
X143784999Y-81039802D01*
X143789801Y-81035000D01*
X143851939Y-81035000D01*
X144051898Y-80995226D01*
X144240256Y-80917205D01*
X144281717Y-80889502D01*
X144398748Y-80889502D01*
X144240000Y-81048250D01*
X144236928Y-81475000D01*
X144249188Y-81599482D01*
X144285498Y-81719180D01*
X144344463Y-81829494D01*
X144423815Y-81926185D01*
X144520506Y-82005537D01*
X144630820Y-82064502D01*
X144750518Y-82100812D01*
X144875000Y-82113072D01*
X145464250Y-82110000D01*
X145623000Y-81951250D01*
X145623000Y-80889500D01*
X145877000Y-80889500D01*
X145877000Y-81951250D01*
X146035750Y-82110000D01*
X146625000Y-82113072D01*
X146749482Y-82100812D01*
X146869180Y-82064502D01*
X146979494Y-82005537D01*
X147076185Y-81926185D01*
X147155537Y-81829494D01*
X147214502Y-81719180D01*
X147250812Y-81599482D01*
X147263072Y-81475000D01*
X147260000Y-81048250D01*
X147101250Y-80889500D01*
X145877000Y-80889500D01*
X145623000Y-80889500D01*
X145603000Y-80889500D01*
X145603000Y-80635500D01*
X145623000Y-80635500D01*
X145623000Y-79573750D01*
X145877000Y-79573750D01*
X145877000Y-80635500D01*
X147101250Y-80635500D01*
X147260000Y-80476750D01*
X147263072Y-80050000D01*
X147250812Y-79925518D01*
X147214502Y-79805820D01*
X147155537Y-79695506D01*
X147076185Y-79598815D01*
X146979494Y-79519463D01*
X146869180Y-79460498D01*
X146749482Y-79424188D01*
X146625000Y-79411928D01*
X146035750Y-79415000D01*
X145877000Y-79573750D01*
X145623000Y-79573750D01*
X145464250Y-79415000D01*
X144875000Y-79411928D01*
X144750518Y-79424188D01*
X144633713Y-79459620D01*
X144553937Y-79340226D01*
X144409774Y-79196063D01*
X144240256Y-79082795D01*
X144051898Y-79004774D01*
X143851939Y-78965000D01*
X143648061Y-78965000D01*
X143448102Y-79004774D01*
X143259744Y-79082795D01*
X143090226Y-79196063D01*
X142946063Y-79340226D01*
X142832795Y-79509744D01*
X142754774Y-79698102D01*
X142715000Y-79898061D01*
X142715000Y-79960199D01*
X142514001Y-80161198D01*
X142484998Y-80185000D01*
X142460378Y-80215000D01*
X142435000Y-80245923D01*
X142435000Y-75850000D01*
X146011928Y-75850000D01*
X146024188Y-75974482D01*
X146060498Y-76094180D01*
X146119463Y-76204494D01*
X146198815Y-76301185D01*
X146295506Y-76380537D01*
X146405820Y-76439502D01*
X146525518Y-76475812D01*
X146650000Y-76488072D01*
X147214250Y-76485000D01*
X147373000Y-76326250D01*
X147373000Y-75127000D01*
X146173750Y-75127000D01*
X146015000Y-75285750D01*
X146011928Y-75850000D01*
X142435000Y-75850000D01*
X142435000Y-74150000D01*
X146011928Y-74150000D01*
X146015000Y-74714250D01*
X146173750Y-74873000D01*
X147373000Y-74873000D01*
X147373000Y-73673750D01*
X147214250Y-73515000D01*
X146650000Y-73511928D01*
X146525518Y-73524188D01*
X146405820Y-73560498D01*
X146295506Y-73619463D01*
X146198815Y-73698815D01*
X146119463Y-73795506D01*
X146060498Y-73905820D01*
X146024188Y-74025518D01*
X146011928Y-74150000D01*
X142435000Y-74150000D01*
X142435000Y-72935000D01*
X155065000Y-72935000D01*
X155065001Y-103623000D01*
%TD*%
M02*
