%TF.GenerationSoftware,KiCad,Pcbnew,(5.1.6)-1*%
%TF.CreationDate,2020-08-29T13:30:18-04:00*%
%TF.ProjectId,555-timer-rev1-0,3535352d-7469-46d6-9572-2d726576312d,rev?*%
%TF.SameCoordinates,Original*%
%TF.FileFunction,Legend,Top*%
%TF.FilePolarity,Positive*%
%FSLAX46Y46*%
G04 Gerber Fmt 4.6, Leading zero omitted, Abs format (unit mm)*
G04 Created by KiCad (PCBNEW (5.1.6)-1) date 2020-08-29 13:30:18*
%MOMM*%
%LPD*%
G01*
G04 APERTURE LIST*
%ADD10C,0.120000*%
%ADD11C,0.150000*%
G04 APERTURE END LIST*
D10*
%TO.C,U1*%
X148750000Y-83310000D02*
X150700000Y-83310000D01*
X148750000Y-83310000D02*
X146800000Y-83310000D01*
X148750000Y-78190000D02*
X150700000Y-78190000D01*
X148750000Y-78190000D02*
X145300000Y-78190000D01*
%TO.C,SW2*%
X151230000Y-91520000D02*
X146270000Y-91520000D01*
X151230000Y-94800000D02*
X151230000Y-93200000D01*
X151230000Y-96480000D02*
X146270000Y-96480000D01*
X146270000Y-94800000D02*
X146270000Y-93200000D01*
%TO.C,SW1*%
X151230000Y-84520000D02*
X146270000Y-84520000D01*
X151230000Y-87800000D02*
X151230000Y-86200000D01*
X151230000Y-89480000D02*
X146270000Y-89480000D01*
X146270000Y-87800000D02*
X146270000Y-86200000D01*
%TO.C,R6*%
X150897936Y-103590000D02*
X152102064Y-103590000D01*
X150897936Y-105410000D02*
X152102064Y-105410000D01*
%TO.C,R5*%
X150910436Y-99840000D02*
X152114564Y-99840000D01*
X150910436Y-101660000D02*
X152114564Y-101660000D01*
%TO.C,D2*%
X147600000Y-103415000D02*
X143515000Y-103415000D01*
X143515000Y-103415000D02*
X143515000Y-105585000D01*
X143515000Y-105585000D02*
X147600000Y-105585000D01*
%TO.C,D1*%
X147600000Y-99665000D02*
X143515000Y-99665000D01*
X143515000Y-99665000D02*
X143515000Y-101835000D01*
X143515000Y-101835000D02*
X147600000Y-101835000D01*
%TO.C,U1*%
D11*
X147988095Y-76802380D02*
X147988095Y-77611904D01*
X148035714Y-77707142D01*
X148083333Y-77754761D01*
X148178571Y-77802380D01*
X148369047Y-77802380D01*
X148464285Y-77754761D01*
X148511904Y-77707142D01*
X148559523Y-77611904D01*
X148559523Y-76802380D01*
X149559523Y-77802380D02*
X148988095Y-77802380D01*
X149273809Y-77802380D02*
X149273809Y-76802380D01*
X149178571Y-76945238D01*
X149083333Y-77040476D01*
X148988095Y-77088095D01*
%TO.C,SW2*%
X147416666Y-97954761D02*
X147559523Y-98002380D01*
X147797619Y-98002380D01*
X147892857Y-97954761D01*
X147940476Y-97907142D01*
X147988095Y-97811904D01*
X147988095Y-97716666D01*
X147940476Y-97621428D01*
X147892857Y-97573809D01*
X147797619Y-97526190D01*
X147607142Y-97478571D01*
X147511904Y-97430952D01*
X147464285Y-97383333D01*
X147416666Y-97288095D01*
X147416666Y-97192857D01*
X147464285Y-97097619D01*
X147511904Y-97050000D01*
X147607142Y-97002380D01*
X147845238Y-97002380D01*
X147988095Y-97050000D01*
X148321428Y-97002380D02*
X148559523Y-98002380D01*
X148750000Y-97288095D01*
X148940476Y-98002380D01*
X149178571Y-97002380D01*
X149511904Y-97097619D02*
X149559523Y-97050000D01*
X149654761Y-97002380D01*
X149892857Y-97002380D01*
X149988095Y-97050000D01*
X150035714Y-97097619D01*
X150083333Y-97192857D01*
X150083333Y-97288095D01*
X150035714Y-97430952D01*
X149464285Y-98002380D01*
X150083333Y-98002380D01*
%TO.C,SW1*%
X147416666Y-90954761D02*
X147559523Y-91002380D01*
X147797619Y-91002380D01*
X147892857Y-90954761D01*
X147940476Y-90907142D01*
X147988095Y-90811904D01*
X147988095Y-90716666D01*
X147940476Y-90621428D01*
X147892857Y-90573809D01*
X147797619Y-90526190D01*
X147607142Y-90478571D01*
X147511904Y-90430952D01*
X147464285Y-90383333D01*
X147416666Y-90288095D01*
X147416666Y-90192857D01*
X147464285Y-90097619D01*
X147511904Y-90050000D01*
X147607142Y-90002380D01*
X147845238Y-90002380D01*
X147988095Y-90050000D01*
X148321428Y-90002380D02*
X148559523Y-91002380D01*
X148750000Y-90288095D01*
X148940476Y-91002380D01*
X149178571Y-90002380D01*
X150083333Y-91002380D02*
X149511904Y-91002380D01*
X149797619Y-91002380D02*
X149797619Y-90002380D01*
X149702380Y-90145238D01*
X149607142Y-90240476D01*
X149511904Y-90288095D01*
%TO.C,R6*%
X151333333Y-103132380D02*
X151000000Y-102656190D01*
X150761904Y-103132380D02*
X150761904Y-102132380D01*
X151142857Y-102132380D01*
X151238095Y-102180000D01*
X151285714Y-102227619D01*
X151333333Y-102322857D01*
X151333333Y-102465714D01*
X151285714Y-102560952D01*
X151238095Y-102608571D01*
X151142857Y-102656190D01*
X150761904Y-102656190D01*
X152190476Y-102132380D02*
X152000000Y-102132380D01*
X151904761Y-102180000D01*
X151857142Y-102227619D01*
X151761904Y-102370476D01*
X151714285Y-102560952D01*
X151714285Y-102941904D01*
X151761904Y-103037142D01*
X151809523Y-103084761D01*
X151904761Y-103132380D01*
X152095238Y-103132380D01*
X152190476Y-103084761D01*
X152238095Y-103037142D01*
X152285714Y-102941904D01*
X152285714Y-102703809D01*
X152238095Y-102608571D01*
X152190476Y-102560952D01*
X152095238Y-102513333D01*
X151904761Y-102513333D01*
X151809523Y-102560952D01*
X151761904Y-102608571D01*
X151714285Y-102703809D01*
%TO.C,R5*%
X151345833Y-99382380D02*
X151012500Y-98906190D01*
X150774404Y-99382380D02*
X150774404Y-98382380D01*
X151155357Y-98382380D01*
X151250595Y-98430000D01*
X151298214Y-98477619D01*
X151345833Y-98572857D01*
X151345833Y-98715714D01*
X151298214Y-98810952D01*
X151250595Y-98858571D01*
X151155357Y-98906190D01*
X150774404Y-98906190D01*
X152250595Y-98382380D02*
X151774404Y-98382380D01*
X151726785Y-98858571D01*
X151774404Y-98810952D01*
X151869642Y-98763333D01*
X152107738Y-98763333D01*
X152202976Y-98810952D01*
X152250595Y-98858571D01*
X152298214Y-98953809D01*
X152298214Y-99191904D01*
X152250595Y-99287142D01*
X152202976Y-99334761D01*
X152107738Y-99382380D01*
X151869642Y-99382380D01*
X151774404Y-99334761D01*
X151726785Y-99287142D01*
%TO.C,D2*%
X145261904Y-103172380D02*
X145261904Y-102172380D01*
X145500000Y-102172380D01*
X145642857Y-102220000D01*
X145738095Y-102315238D01*
X145785714Y-102410476D01*
X145833333Y-102600952D01*
X145833333Y-102743809D01*
X145785714Y-102934285D01*
X145738095Y-103029523D01*
X145642857Y-103124761D01*
X145500000Y-103172380D01*
X145261904Y-103172380D01*
X146214285Y-102267619D02*
X146261904Y-102220000D01*
X146357142Y-102172380D01*
X146595238Y-102172380D01*
X146690476Y-102220000D01*
X146738095Y-102267619D01*
X146785714Y-102362857D01*
X146785714Y-102458095D01*
X146738095Y-102600952D01*
X146166666Y-103172380D01*
X146785714Y-103172380D01*
%TO.C,D1*%
X145261904Y-99422380D02*
X145261904Y-98422380D01*
X145500000Y-98422380D01*
X145642857Y-98470000D01*
X145738095Y-98565238D01*
X145785714Y-98660476D01*
X145833333Y-98850952D01*
X145833333Y-98993809D01*
X145785714Y-99184285D01*
X145738095Y-99279523D01*
X145642857Y-99374761D01*
X145500000Y-99422380D01*
X145261904Y-99422380D01*
X146785714Y-99422380D02*
X146214285Y-99422380D01*
X146500000Y-99422380D02*
X146500000Y-98422380D01*
X146404761Y-98565238D01*
X146309523Y-98660476D01*
X146214285Y-98708095D01*
%TD*%
M02*
